<svg xmlns="http://www.w3.org/2000/svg" height="1024" preserveAspectRatio="none" style="display: block;" version="1.1" viewBox="0 0 2048 2048" width="1024">
<path d="M 1007.57 116.575 C 1008.37 116.527 1009.17 116.485 1009.97 116.449 C 1295.01 103.768 1565.67 215.921 1757.32 427.364 C 1875.67 558.524 1957.17 718.686 1993.53 891.563 C 1999.32 919.49 2005.89 952.33 2008.49 980.7 C 2009.15 987.888 2006.2 999.93 2005.11 1007.83 C 2001.61 1035.03 1997.01 1062.08 1991.34 1088.9 C 1957.51 1246.17 1898.64 1384.14 1799.19 1511.14 C 1779.5 1536.28 1758.71 1563.12 1736.96 1586.46 C 1556.64 1780.85 1306.15 1895.17 1041.14 1904 C 806.171 1913.09 576.198 1834.58 395.839 1683.69 C 350.261 1644.94 316.121 1610.84 277.315 1565.62 C 177.816 1449.67 106.995 1311.46 67.7489 1163.92 C 59.5388 1133.05 51.7967 1102.96 46.4873 1071.45 C 39.6479 1039.58 38.093 1031.13 44.5585 998.743 C 49.0605 976.192 51.8587 953.6 57.2991 930.535 C 98.1016 757.548 176.392 593.045 295.135 459.902 C 323.911 427.643 363.28 387.117 395.73 359.185 C 566.499 211.663 782.104 126.17 1007.57 116.575 z M 1011.53 1867.02 C 1069.41 1867.83 1128.57 1860.75 1185.28 1849.88 C 1371.22 1815.69 1542.54 1726.28 1676.93 1593.3 C 1703.41 1567.58 1731.72 1534.58 1754.63 1505.6 C 1856.59 1377.9 1926.15 1227.43 1957.37 1067.03 L 1966.86 1015.04 C 1967.91 1009.5 1972.21 991.432 1971.62 986.933 C 1951.5 835.245 1897.2 688.501 1812.57 560.926 C 1774.65 503.766 1737.56 459.697 1688.75 411.198 C 1520.6 246.947 1295.05 154.717 1059.99 154.097 C 1053.41 154.147 1046.82 154.271 1040.24 154.469 C 1004.56 155.336 971.274 157.06 935.92 161.172 C 670.092 192.085 426.535 337.098 268.998 552.806 C 187.837 662.415 132.184 788.463 99.1028 920.458 C 92.2689 947.725 87.2331 972.182 82.3734 999.903 C 76.9213 1031 76.8161 1030.32 82.8938 1061.01 C 87.1675 1083.07 92.1044 1104.99 97.6979 1126.76 C 203.732 1554.38 563.246 1868.26 1011.53 1867.02 z" fill="rgb(24,53,64)" transform="translate(0,0)"></path>
<path d="M 1025.27 230.457 C 1026.05 230.428 1026.84 230.403 1027.63 230.383 C 1251.19 223.542 1468.16 306.614 1629.99 461.009 C 1754.83 579.822 1831.35 723.37 1876.14 888.738 C 1881.06 906.894 1895.79 966.797 1897.03 982.677 C 1897.66 990.732 1883.85 1055.03 1881.16 1067.05 C 1844.23 1236.54 1761.81 1392.76 1642.76 1518.91 C 1481.81 1688.53 1259.53 1786.47 1025.75 1790.8 C 647.002 1798.68 325.876 1557.98 201.023 1206.36 C 190.892 1177.82 182.478 1148.4 174.982 1118.93 C 167.466 1089.39 157.881 1058.92 153.529 1028.77 C 152.439 1017.76 167.451 956.343 170.354 944.198 C 207.255 789.829 282.329 640.079 389.75 522.39 C 517.283 382.779 685.481 286.797 870.554 248.018 C 926.089 236.747 969.354 232.979 1025.27 230.457 z M 1027.79 1769.26 C 1447.06 1755.37 1767.28 1466.11 1860.05 1063.07 C 1863.12 1049.73 1877.11 992.304 1875.42 983.262 C 1832.83 755.786 1736.72 567.082 1553.1 422.099 C 1402.15 305.09 1214.8 245.008 1023.96 252.406 C 1023.82 252.415 1023.68 252.425 1023.54 252.434 C 963.51 256.267 911.625 260.471 852.555 274.099 C 651.083 320.582 473.129 439.312 350.215 604.971 C 273.88 708.611 219.411 826.688 190.118 952.029 C 184.982 973.329 179.321 997.619 176.347 1019.42 C 174.816 1030.64 181.357 1055.38 184.245 1067.47 C 189.635 1090.43 195.533 1113.28 201.933 1135.98 C 254.8 1319.45 347.767 1469.26 496.542 1590.3 C 619.376 1689.03 768.316 1749.82 925.151 1765.25 C 950.242 1767.9 1002.85 1771.36 1027.79 1769.26 z" fill="rgb(24,53,64)" transform="translate(0,0)"></path>
<path d="M 1333.44 698.298 C 1348.58 697.871 1366.05 701.622 1377.86 711.343 C 1387.89 719.601 1401.86 742.592 1408.68 753.908 C 1470.02 855.759 1512.8 983.697 1525.5 1101.83 C 1536.08 1200.19 1523.49 1335.67 1459.38 1415.03 C 1413.54 1470.41 1341.6 1499.94 1271.87 1507.96 C 1183.04 1518.18 1094.67 1500.86 1011.65 1469.65 C 897.78 1426.84 789.237 1359.84 702.595 1274.15 C 690.425 1262.11 679.493 1248.58 666.102 1237.8 C 665.685 1244.91 665.891 1253.38 665.895 1260.62 C 679.49 1277.66 694.329 1293.5 708.258 1310.18 C 732.276 1338.95 751.342 1366.28 768.461 1399.65 C 805.159 1475.07 784.26 1554.89 700.669 1584.7 C 629.898 1609.94 572.785 1563.89 553.154 1496.37 C 524.254 1396.96 550.831 1288.76 582.421 1193.17 C 588.681 1174.14 637.648 1230.24 644.429 1236.65 C 646.684 1220.85 649.211 1205.9 656.923 1191.33 C 661.086 1183.47 669.956 1168.85 679.658 1181.86 C 682.607 1185.82 678.568 1194.68 676.646 1198.61 C 674.263 1203.48 672.281 1208.1 670.562 1213.47 L 670.126 1214.85 C 683.841 1214.21 707.479 1209.85 721.711 1207.42 C 827.565 1188.72 929.716 1153.09 1024.24 1101.91 C 1141.52 1037.57 1237.18 947.78 1307.44 834.195 C 1328.6 799.986 1349.92 763.81 1361.29 724.983 C 1350.18 718.441 1331.81 719.088 1326.11 710.042 C 1324.98 703.353 1327.71 700.559 1333.44 698.298 z M 785.721 1248.93 C 796.031 1255.59 802.299 1258.69 813.736 1263.28 C 890.552 1294.29 988.107 1269.12 1062.07 1237.05 C 1187.81 1182.54 1319.53 1089.47 1375.54 959.894 C 1391.78 922.32 1401.12 871.825 1383.14 833.523 C 1309.64 971.211 1115.36 1112.73 977.948 1180.73 C 934.682 1201.96 889.72 1219.54 843.528 1233.29 C 826.903 1238.34 802.835 1245.28 785.721 1248.93 z" fill="rgb(24,53,64)" transform="translate(0,0)"></path>
<path d="M 1408.2 1250.42 C 1442.18 1247.65 1470.19 1258.06 1498.72 1274.88 C 1480.69 1343.58 1454.87 1401.44 1392.99 1442.93 C 1316.14 1494.46 1214.44 1497.2 1126.4 1479.98 C 1126.34 1461.9 1131.2 1443.32 1139.71 1427.4 C 1171.63 1367.66 1242.16 1346.94 1305.69 1357.99 C 1315.79 1359.75 1349.89 1371.54 1357.07 1368.98 C 1360.45 1367.77 1362.14 1366.23 1363.67 1363.03 C 1362.02 1340.83 1295.02 1332.73 1276.23 1332.15 C 1281.34 1323.29 1287.29 1314.93 1293.98 1307.19 C 1322.84 1273.64 1364.03 1253.17 1408.2 1250.42 z" fill="rgb(235,138,108)" transform="translate(0,0)"></path>
<path d="M 595.999 1220.93 C 601.261 1225.01 608.75 1232.95 613.383 1238.02 C 680.511 1311.45 846.9 1464.66 714.472 1555.28 C 657.219 1589.28 598.605 1562.15 577.037 1501.28 C 550.047 1425.1 563.363 1339.46 583.118 1263.26 C 586.243 1251.21 591.032 1232.04 595.999 1220.93 z" fill="rgb(235,138,108)" transform="translate(0,0)"></path>
<path d="M 1452.58 649.214 C 1454.58 649.133 1456.59 649.152 1458.59 649.272 C 1476.93 650.439 1518.81 659.579 1537.91 664.049 C 1616.25 683.171 1711.41 708.265 1767.98 769.425 C 1809.32 814.106 1810.25 889.633 1762.23 930.279 C 1735.28 954.047 1694.72 963.395 1659.63 959.682 C 1621.49 955.648 1588.49 931.624 1564.95 902.492 C 1518.75 845.33 1492.53 773.879 1465.92 706.115 C 1459.98 690.981 1448.35 671.214 1447.42 654.615 C 1447.29 652.269 1450.83 650.403 1452.58 649.214 z" fill="rgb(24,53,64)" transform="translate(0,0)"></path>
<path d="M 1477.17 673.368 C 1558.55 685.308 1681.71 717.731 1744.73 774.585 C 1783.29 809.377 1791.09 871.947 1751.3 910.862 C 1700.27 955.029 1633.06 947.077 1588.1 898.615 C 1549.54 857.057 1526.35 800.652 1505.9 748.521 C 1496.09 723.56 1486.51 698.508 1477.17 673.368 z" fill="rgb(235,138,108)" transform="translate(0,0)"></path>
<path d="M 653.747 808.417 C 692.739 804.105 737.919 813.787 771.033 834.646 C 775.011 836.978 787.565 842.966 783.037 849.314 C 774.923 860.689 762.833 871.79 753.394 882.284 C 742.786 894.186 732.428 906.309 722.327 918.645 C 665.554 987.372 614.695 1062.67 564.958 1136.57 C 562.487 1140.24 558.827 1144.81 554.586 1146.23 C 541.559 1145.97 542.235 1134.67 547.522 1126.59 C 558.744 1109.46 570.835 1091.59 582.313 1074.72 C 617.592 1022.33 654.934 971.367 694.253 921.942 C 704.616 908.69 715.21 895.62 726.032 882.74 C 732.936 874.452 742.397 863.792 748.22 855.04 C 701.367 869.729 604.787 957.03 568.21 993.4 C 557.399 1004.15 489.87 1079.59 485.853 1080.63 C 484.22 1081.05 481.273 1080.58 479.953 1079.49 C 471.803 1072.75 467.212 1040.08 465.812 1028.58 C 459.615 977.65 478.323 927.685 509.637 888.093 C 545.056 843.296 596.975 814.592 653.747 808.417 z M 490.167 1046.32 C 494.767 1041.2 500.421 1035.55 503.211 1029.41 C 499.112 1026.27 497.65 1024.62 492.803 1025.11 C 490.007 1027.04 489.529 1028.41 487.839 1031.32 C 487.937 1036.03 489.258 1041.61 490.167 1046.32 z" fill="rgb(24,53,64)" transform="translate(0,0)"></path>
<path d="M 487.839 1031.32 C 483.751 1014.11 486.881 982.121 491.918 965.112 C 505.797 918.244 540.429 875.167 583.263 851.772 C 622.446 830.371 676.703 821.985 719.787 834.472 L 719.313 835.315 C 716.764 835.922 716.667 835.734 714.697 837.371 C 713.871 841.342 713.747 839.45 715.048 843.264 C 717.284 844.358 717.693 844.49 719.622 846.014 C 711.055 851.808 701.891 856.496 693.33 862.173 C 650.862 890.334 610.87 924.429 574.027 959.523 C 557.644 975.109 541.641 991.089 526.032 1007.45 C 522.455 1011.18 505.567 1029.8 503.481 1031.29 L 503.211 1029.41 C 499.112 1026.27 497.65 1024.62 492.803 1025.11 C 490.007 1027.04 489.529 1028.41 487.839 1031.32 z" fill="rgb(246,216,142)" transform="translate(0,0)"></path>
<path d="M 487.839 1031.32 C 489.529 1028.41 490.007 1027.04 492.803 1025.11 C 497.65 1024.62 499.112 1026.27 503.211 1029.41 C 500.421 1035.55 494.767 1041.2 490.167 1046.32 C 489.258 1041.61 487.937 1036.03 487.839 1031.32 z" fill="rgb(246,216,142)" fill-opacity="0.00784314" transform="translate(0,0)"></path>
<path d="M 1215.67 459.466 C 1250.28 459.044 1282.59 467.301 1312.06 485.808 C 1321.71 491.869 1338.9 499.917 1342.89 510.824 C 1342.62 513.807 1343.02 515.073 1339.77 516.858 C 1331.84 521.222 1321.73 524.625 1313.23 527.863 C 1299.48 533.01 1285.82 538.415 1272.27 544.075 C 1191.07 577.95 1121.48 609.83 1056.67 670.248 C 1145.72 632.721 1243.61 611.575 1338.11 593.289 C 1343.34 592.482 1378.46 586.563 1380.76 588.897 C 1401.05 609.483 1365.41 611.324 1353.25 613.298 C 1340.06 615.455 1326.89 617.769 1313.75 620.24 C 1255.41 631.317 1197.79 645.904 1141.21 663.923 C 1118.64 671.327 1096.18 679.07 1073.84 687.149 C 1063.82 690.698 1040.86 699.506 1031.57 700.391 C 1030.53 700.085 1028.69 699.457 1028.13 698.555 C 996.375 646.633 1027.9 567.104 1064.71 530.006 C 1110.59 483.757 1154.83 462.035 1215.67 459.466 z M 1274.91 513.653 L 1276.33 516.23 C 1281.84 517.366 1300.86 508.802 1306.62 506.296 C 1299.07 501.123 1294.28 498.757 1285.82 495.658 C 1280.33 504.543 1286.21 508.061 1274.91 513.653 z M 1037.28 657.39 C 1042.36 653.669 1048.71 648.471 1052.37 643.339 C 1047.52 637.428 1044.72 637.501 1037.93 639.181 C 1037.61 645.028 1037.07 651.599 1037.28 657.39 z" fill="rgb(24,53,64)" transform="translate(0,0)"></path>
<path d="M 1037.93 639.181 C 1037.92 638.305 1037.91 637.428 1037.9 636.552 C 1044.86 544.715 1142.35 474.487 1231.05 480.427 C 1242.44 481.189 1279.93 488.845 1285.82 495.658 C 1280.33 504.543 1286.21 508.061 1274.91 513.653 L 1273.36 514.652 C 1273.89 517.072 1273.62 516.177 1275.23 518.328 C 1269.71 522.649 1211.81 546.114 1200.63 551.343 C 1165.29 567.891 1131.2 586.989 1098.63 608.487 C 1093.59 611.817 1086.28 617.123 1081.63 620.395 C 1077.83 623.066 1054.49 643.408 1052.37 643.339 C 1047.52 637.428 1044.72 637.501 1037.93 639.181 z" fill="rgb(246,216,142)" transform="translate(0,0)"></path>
<path d="M 906.831 733.266 C 909.559 733.429 912.281 733.689 914.99 734.048 C 1004.87 746.404 1106.08 812.193 1156.26 886.086 C 1169.65 905.805 1158.28 915.84 1146.07 932.902 C 1129.98 955.401 1108.91 973.28 1085.86 988.358 C 1045.75 1013.13 1001.67 1027.36 954.404 1028.82 C 948.962 1028.99 944.762 1029.05 941.361 1024.23 C 939.839 1019.53 942.471 1014.97 944.748 1010.94 C 988.875 932.947 970.937 835.332 917.243 766.846 C 910.928 758.791 886.973 739.827 906.831 733.266 z M 978.648 1006.42 L 977.181 1005.69 C 983.89 1001.89 988.326 996.445 981.283 989.906 L 977.497 990.745 C 975.451 995.38 971.426 1002.42 972.928 1006.91 C 975.849 1007.49 975.739 1007.3 978.648 1006.42 z M 953.291 767.702 C 951.312 765.037 946.884 764.245 943.441 763.097 L 942.446 762.773 C 947.521 771.036 949.222 775.709 957.514 780.459 L 959.541 774.844 C 958.803 770.856 957.092 770.524 953.291 767.702 z" fill="rgb(24,53,64)" transform="translate(0,0)"></path>
<path d="M 953.291 767.702 C 965.23 765.115 1025.31 796.658 1037.43 804.343 C 1081.92 832.574 1110.73 859.977 1141.6 902.715 C 1103.14 957.738 1051.32 993.597 984.654 1005.51 C 982.661 1005.87 980.658 1006.17 978.648 1006.42 L 977.181 1005.69 C 983.89 1001.89 988.326 996.445 981.283 989.906 L 977.497 990.745 C 996.517 937.446 995.631 879.069 975.002 826.372 C 969.309 811.66 959.699 794.795 955.432 783.217 L 957.514 780.459 L 959.541 774.844 C 958.803 770.856 957.092 770.524 953.291 767.702 z" fill="rgb(246,216,142)" transform="translate(0,0)"></path>
<path d="M 977.497 990.745 L 981.283 989.906 C 988.326 996.445 983.89 1001.89 977.181 1005.69 L 978.648 1006.42 C 975.739 1007.3 975.849 1007.49 972.928 1006.91 C 971.426 1002.42 975.451 995.38 977.497 990.745 z" fill="rgb(246,216,142)" fill-opacity="0.803922" transform="translate(0,0)"></path>
<path d="M 942.446 762.773 L 943.441 763.097 C 946.884 764.245 951.312 765.037 953.291 767.702 C 957.092 770.524 958.803 770.856 959.541 774.844 L 957.514 780.459 C 949.222 775.709 947.521 771.036 942.446 762.773 z" fill="rgb(246,216,142)" fill-opacity="0.027451" transform="translate(0,0)"></path>
<path d="M 548.294 624.3 C 556.217 623.599 568.744 621.853 574.471 628.256 C 581.286 645.702 503.142 712.806 488.894 727.9 C 475.037 742.609 462.283 758.319 450.735 774.903 C 428.308 807.25 416.532 837.12 406.861 874.767 C 406.059 879.232 404.732 884.6 402.205 888.372 C 397.681 890.021 394.255 883.65 393.748 880.1 C 378.686 774.754 435.754 647.514 548.294 624.3 z" fill="rgb(24,53,64)" transform="translate(0,0)"></path>
<path d="M 1033.19 329.402 C 1038.63 329.101 1044.08 328.962 1049.54 328.985 C 1086.16 329.267 1148.16 339.802 1178.96 364.866 C 1180.95 366.492 1180.98 368.59 1180.86 370.924 C 1180.13 371.682 1179.39 372.441 1178.65 373.2 C 1170.06 374.005 1152.1 371.544 1143.79 371.31 C 1093.41 369.891 1044.88 380.242 997.544 395.987 C 966.057 406.16 935.775 420.211 904.046 429.255 C 873.321 437.32 876.615 410.676 891.44 393.794 C 929.769 350.147 977.458 335.421 1033.19 329.402 z" fill="rgb(24,53,64)" transform="translate(0,0)"></path>
<path d="M 1564.79 1326.91 C 1571.98 1326.78 1578.39 1328.83 1577.16 1337.69 C 1569.75 1391.15 1538.98 1453.25 1501.91 1492.48 C 1439.72 1558.29 1355.19 1578.12 1268.25 1579.52 C 1260.78 1580.05 1254.3 1576.76 1255.75 1567.58 C 1256.82 1560.76 1268.67 1560.39 1274.59 1560.22 C 1330.93 1558.53 1389.94 1545.3 1439.03 1516.86 C 1495.65 1484.2 1525.2 1434.93 1546.42 1374.8 C 1551.43 1360.59 1554.29 1346.64 1559.25 1332.65 C 1560.2 1329.99 1562.51 1328.42 1564.79 1326.91 z" fill="rgb(24,53,64)" transform="translate(0,0)"></path>
<metadata><recraft-signature>{"signed_by": "recraft", "signature_b64": "Anm90h5bC7SV/ItotrihlN4oHiohX0Sd6Xpfoqz5xOiH0je5q4KUV4uW2Qvtw7lan4HflD0OuPsrMjkYyuOPAw==", "signing_algo": "Ed25519", "generation_timestamp": 1782789372, "identifier": "d2e8380f-dc59-4bfe-9380-cbc0ecde1d7d"}</recraft-signature></metadata></svg>