<svg xmlns="http://www.w3.org/2000/svg" height="1024" preserveAspectRatio="none" style="display: block;" version="1.1" viewBox="0 0 2048 2048" width="1024">
<path d="M 1003.19 110.452 C 1150.09 107.873 1295.93 135.769 1431.51 192.38 C 1535.43 237.895 1630.94 300.601 1714.02 377.862 C 1738.13 400.671 1770.54 433.844 1791.9 459.355 C 1920.8 613.52 1993.71 806.78 1998.76 1007.67 C 2003.61 1188.64 1943.08 1375.61 1839.54 1523.4 C 1808.34 1567.93 1773.31 1608.11 1735.93 1647.47 C 1583.89 1807.55 1371.32 1902.87 1154.05 1930.71 C 1117 1935.45 1079.42 1936.68 1042.12 1937.65 C 991.485 1940.82 926.25 1934.75 876.372 1927.58 C 703.546 1903.81 540.098 1834.7 402.652 1727.27 C 200.08 1567.61 59.3335 1323.56 47.2884 1063.38 C 37.6528 855.245 108.08 658.281 232.872 493.537 C 395.309 279.097 638.584 148.324 904.512 117.287 C 938.381 113.303 968.995 111.902 1003.19 110.452 z M 94.8537 864.95 C 176.987 860.123 180.137 849.401 236.736 787.975 C 242.122 782.13 249.59 773.538 257.769 777.241 C 261.072 781.461 260.506 784.957 259.753 790.437 C 254.178 831.009 238.118 873.914 256.362 913.151 C 260.271 921.383 264.808 929.302 269.932 936.838 C 278.68 949.912 290.284 962.973 297.137 976.588 C 303.117 988.471 278.463 988.669 272.803 989.019 C 236.178 991.287 200.603 999.485 174.749 1027.39 C 151.545 1051.73 133.704 1078.7 115.498 1106.86 C 112.522 1111.46 105.024 1112.9 101.385 1106.99 C 99.5184 1096.3 103.757 1079.96 105.677 1069.29 C 114.806 1018.55 129.137 981.884 102.804 933.397 C 97.0216 922.75 93.3845 913.807 86.0924 902.21 C 78.5546 935.367 75.9799 987.928 76.0319 1021.23 C 76.3434 1220.55 154.702 1417.15 281.615 1569.61 C 291.14 1581.06 302.756 1592.34 313.004 1603.33 C 441.675 1742.69 609.72 1839.58 794.794 1881.12 C 878.905 1899.54 964.873 1908.12 1050.97 1906.67 C 1064.47 1906.34 1087.07 1906.18 1099.61 1904 C 1115.98 1901.16 1139.4 1892.78 1155.73 1887.34 C 1242.46 1859.22 1325.31 1820.33 1402.36 1771.6 C 1594.58 1651.05 1733.03 1461.14 1789 1241.25 C 1792.19 1230.33 1795.12 1217.33 1796.56 1206.03 C 1738.06 1222.81 1707.51 1283.32 1673.52 1328.94 C 1670.62 1332.83 1664.89 1334.65 1660.39 1332.68 C 1657.04 1328.78 1656.58 1323.39 1657.28 1318.59 C 1659.49 1303.4 1664.13 1285.25 1667.67 1270.42 C 1680.34 1217.37 1692.74 1177.18 1665.67 1125.6 C 1658.21 1110.71 1649.45 1096.56 1639.16 1083.43 C 1634.79 1077.43 1626.78 1071.07 1625.92 1063.4 C 1625.29 1057.71 1632.79 1055.56 1637.09 1055.5 C 1678.62 1054.94 1719.51 1056.56 1755.69 1032.18 C 1779.08 1016.41 1796.51 994.958 1814.9 973.893 C 1821.24 966.798 1833.61 947.828 1844.62 949.059 C 1846.25 949.242 1847.23 950.268 1848.29 951.506 C 1852.52 960.564 1847.65 975.509 1846.23 985.224 C 1843.37 1004.76 1838.47 1024.35 1836.28 1043.93 C 1833.18 1071.47 1833.04 1099.65 1847.69 1124.04 C 1851.37 1130.11 1855.49 1135.89 1860.03 1141.33 C 1904.61 1195.21 1914.43 1195.85 1839.3 1196.32 C 1832.63 1196.36 1821.91 1198.06 1815.28 1199.83 C 1776.96 1393.44 1675.47 1568.87 1526.73 1698.6 C 1445.84 1769.31 1348.56 1828.3 1249.53 1870.08 C 1242.25 1873.15 1225.31 1879.16 1219.39 1884.4 C 1219.28 1884.56 1219.55 1888.15 1219.55 1888.28 C 1229.08 1889.2 1271.08 1877.82 1282.83 1874.78 C 1415.51 1841.4 1539.17 1779.12 1644.99 1692.4 C 1825.55 1544.06 1954.04 1311.69 1967.85 1075.77 C 1983.35 810.817 1877.93 566.039 1680.64 387.839 C 1524.64 248.18 1327.54 162.906 1118.93 144.825 C 1091 142.221 1045.7 139.882 1018.15 140.468 C 750.573 143.909 510.684 240.849 323.395 433.022 C 229.716 529.818 159.306 646.673 117.503 774.727 C 109.685 798.798 98.0619 840.054 94.8537 864.95 z" fill="rgb(49,70,60)" transform="translate(0,0)"></path>
<path d="M 1266.81 615.384 C 1268.16 615.249 1269.52 615.149 1270.87 615.084 C 1363.35 610.133 1414.81 686.625 1419.99 771.239 C 1428.22 905.803 1367.16 1038.89 1278.84 1137.66 C 1230.01 1192.26 1143.55 1252.41 1069.25 1255.97 C 1031.86 1257.79 1004.04 1251.53 974.078 1227.85 C 935.446 1197.32 917.459 1146.24 913.915 1097.87 C 905.632 984.835 959.404 850.122 1030.13 763.7 C 1088.65 692.193 1172.69 624.228 1266.81 615.384 z M 1016.65 831.9 L 1018.05 832.011 C 1030.58 833.071 1046.86 837.119 1059.72 838.832 C 1113.91 846.048 1137.06 837.753 1177.16 804.402 C 1195.69 788.724 1213.36 772.067 1230.11 754.502 C 1238.65 745.373 1246.69 735.886 1255.18 726.74 C 1259.05 722.561 1263.14 720.927 1268.16 724.356 C 1273.73 733.208 1270.64 759.933 1269.2 770.759 C 1258.46 887.342 1259.52 920.71 1330.24 1018.12 C 1341.73 1001.46 1353.18 974.645 1360.63 955.731 C 1385.57 892.456 1402.93 817.697 1390.85 749.844 C 1379.63 686.832 1341.34 644.09 1275.58 643.429 C 1174.75 647.584 1062.85 746.477 1016.65 831.9 z M 1278.92 1094.35 C 1290.57 1079.2 1305.22 1060.26 1314.21 1043.25 C 1282.51 1037.79 1248 1040.97 1218.93 1046.15 C 1138.94 1060.42 1095 1119.79 1040.87 1172.37 C 1030.66 1182.29 1024.79 1164.46 1027.96 1156.25 C 1030.6 1138.59 1034.84 1121.76 1038.39 1104.41 C 1043.1 1080.57 1046.21 1056.44 1047.7 1032.19 C 1051.43 962.895 1035 921.821 996.201 866.684 C 954.218 948.029 923.667 1053.78 950.695 1144.15 C 974.452 1223.59 1041.62 1244 1115.3 1217.62 C 1182.26 1193.66 1235.05 1149.22 1278.92 1094.35 z M 1242.67 765.897 C 1241.27 769.379 1239.47 771.579 1241.89 774.627 L 1244.15 774.368 C 1247.57 771.881 1252.76 766.944 1249.56 762.589 L 1245.1 762.663 C 1244.74 763.123 1242.88 765.469 1242.67 765.897 z M 1303.67 1025.44 C 1308.15 1025.1 1309.56 1025.3 1314.09 1025.79 C 1311.15 1020.72 1309.37 1017.54 1304.86 1013.83 C 1301.29 1019.01 1301.63 1019.08 1303.67 1025.44 z" fill="rgb(49,70,60)" transform="translate(0,0)"></path>
<path d="M 1245.1 762.663 C 1247.75 760.162 1250.51 757.421 1253.4 755.252 C 1251.72 782.077 1247.65 808.745 1246.09 835.603 C 1242.54 897.166 1264.1 954.795 1299.67 1004.22 C 1300.72 1005.68 1305.96 1012.43 1304.86 1013.83 C 1301.29 1019.01 1301.63 1019.08 1303.67 1025.44 C 1286.11 1026.12 1267.71 1024.19 1248.52 1025.4 C 1164.36 1030.71 1107.8 1075.72 1054.54 1135.78 C 1055.77 1130.16 1057.42 1126.05 1054.25 1121.22 C 1053.69 1120.07 1052.59 1118.58 1052.83 1117.22 C 1059.17 1082.09 1066.16 1043.94 1064.6 1008.11 C 1062.72 963.562 1049.89 920.169 1027.25 881.764 C 1024.05 876.233 1020.82 871.125 1017.11 865.935 C 1013.54 860.954 1009.45 858.099 1007.06 852.597 C 1007.38 848.963 1006.74 850.578 1009.32 847.698 C 1049.51 851.887 1094.86 866.393 1134.72 850.526 C 1175.56 834.271 1211.94 796.982 1242.67 765.897 C 1241.27 769.379 1239.47 771.579 1241.89 774.627 L 1244.15 774.368 C 1247.57 771.881 1252.76 766.944 1249.56 762.589 L 1245.1 762.663 z" fill="rgb(235,193,117)" transform="translate(0,0)"></path>
<path d="M 1245.1 762.663 L 1249.56 762.589 C 1252.76 766.944 1247.57 771.881 1244.15 774.368 L 1241.89 774.627 C 1239.47 771.579 1241.27 769.379 1242.67 765.897 C 1242.88 765.469 1244.74 763.123 1245.1 762.663 z" fill="rgb(235,193,117)" fill-opacity="0.898039" transform="translate(0,0)"></path>
<path d="M 729.571 345.372 C 820.312 336.579 873.501 406.261 882.423 489.924 C 902.893 681.852 735.823 962.403 535.246 985.718 C 448.48 992.898 396.276 930.435 383.771 849.854 C 352.677 649.483 524.481 375.771 729.571 345.372 z M 734.703 505.08 C 722.737 595.319 721.111 656.296 780.573 733.15 C 783.952 737.544 787.639 741.693 791.606 745.564 C 839.962 659.681 872.479 556.703 847.554 458.227 C 834.675 407.341 788.694 367.071 734.505 373.36 C 637.041 383.586 530.599 478.072 483.354 561.46 C 599.3 590.438 646.341 537.421 719.794 457.522 C 723.58 453.404 734.369 449.916 736.326 456.392 C 740.176 469.14 735.784 491.687 734.703 505.08 z M 746.804 814.772 C 754.826 803.557 765.746 788.504 771.777 776.288 C 641.882 749.327 580.841 819.755 499.529 905.397 C 496.386 908.707 492.427 910.883 487.918 911.513 C 483.071 909.367 480.917 904.484 482.395 899.407 C 490.942 870.049 500.192 841.873 505.765 811.721 C 521.271 727.832 516.073 670.213 460.703 600.856 C 419.047 663.965 397.896 787.593 412.51 860.503 C 427.017 932.872 485.471 971.837 557.099 954.777 C 631.118 937.147 702.72 874.26 746.804 814.772 z M 779.269 760.295 C 776.005 754.589 771.465 746.874 764.903 745.248 L 762.418 744.462 C 759.142 747.669 761.291 753.414 762.178 757.666 C 768.217 758.819 773.173 759.537 779.269 760.295 z" fill="rgb(49,70,60)" transform="translate(0,0)"></path>
<path d="M 480.874 579.619 C 568.692 601.82 624.601 577.43 687.622 515.76 C 698.533 505.083 709.215 493.121 720.215 482.688 C 716.542 515.645 711.445 547.063 711.448 580.475 C 711.452 632.922 724.649 681.479 754.047 725.119 C 758.184 731.261 763.849 737.889 767.083 744.345 L 764.903 745.248 L 762.418 744.462 C 759.142 747.669 761.291 753.414 762.178 757.666 C 743.487 756.968 733.072 753.886 710.872 754.446 C 621.538 756.7 564.678 813.658 507.452 874.153 C 514.46 848.705 520.265 821.366 524.489 795.44 C 538.067 712.094 526.161 661.3 477.596 593.523 L 480.874 579.619 z" fill="rgb(235,193,117)" transform="translate(0,0)"></path>
<path d="M 425.265 1052.66 C 430.875 1053.75 462.459 1076.06 469.419 1080.63 C 497.268 1098.71 525.324 1116.47 553.58 1133.91 C 645.579 1190.03 742.02 1238.51 841.935 1278.89 C 870.266 1290.59 898.94 1301.45 927.918 1311.44 C 944.118 1317.17 961.016 1322.15 976.886 1328.67 C 980.364 1330.11 984.395 1331.72 986.742 1334.78 C 988.092 1336.55 988.538 1337.51 988.095 1339.74 C 985.253 1354.08 869.145 1447.35 849.133 1463.49 C 765.738 1523.41 665.027 1594.78 555.151 1569.12 C 511.208 1558.86 469.011 1529.64 446.211 1489.81 C 386.675 1385.81 393.455 1250.12 405.496 1134.85 C 407.959 1112.94 411.885 1089.74 416.302 1068.25 C 417.835 1060.79 419.017 1056.52 425.265 1052.66 z M 861.484 1383.01 C 869.445 1377.23 881.114 1366.37 888.376 1359.26 C 894.881 1352.85 905.566 1342.91 910.905 1336.01 C 855.742 1317.76 787.502 1288.19 735.301 1263.47 C 679.8 1237.83 625.519 1209.62 572.633 1178.95 C 536.263 1157.92 501.261 1134.64 465.331 1112.88 C 459.354 1109.26 453.553 1105.25 447.217 1102.28 C 451.475 1118.37 455.142 1135.25 460.891 1150.75 C 479.801 1201.73 530.711 1231.12 575.967 1257.41 C 638.865 1293.57 704.342 1325.05 771.866 1351.59 C 802.652 1363.45 831.326 1372.18 861.484 1383.01 z" fill="rgb(49,70,60)" transform="translate(0,0)"></path>
<path d="M 524.946 1397.41 C 539.056 1395.48 568.504 1398.02 582.189 1401.44 C 643.456 1416.75 702.799 1451.31 737.798 1504.12 C 712.388 1519.79 684.744 1531.51 655.813 1538.87 C 591.68 1554.19 522.119 1540.83 479.626 1486.76 C 465.556 1468.86 457.443 1450 449.033 1429.12 C 475.82 1408.66 491.537 1401.05 524.946 1397.41 z" fill="rgb(235,193,117)" transform="translate(0,0)"></path>
<path d="M 1221.13 1421.97 C 1233.41 1423.78 1231.72 1433.21 1229.7 1443.3 C 1217.35 1505.23 1207.03 1575.04 1255.25 1625.12 C 1264.13 1634.34 1273.51 1643.47 1281.77 1653.18 C 1283.7 1655.45 1284.78 1660.61 1281.42 1664.05 C 1246.78 1667.86 1214.56 1662.91 1180.62 1675.89 C 1132.17 1694.41 1103.02 1734.73 1072.29 1773.95 C 1066.14 1781.81 1056.99 1794.24 1049.92 1800.84 C 1045.48 1801.95 1042.98 1802.4 1039.31 1799.02 C 1033.87 1787.86 1056.06 1725.2 1059.57 1709.01 C 1070.37 1659.27 1064.38 1619.56 1035.85 1577.06 C 1026.52 1563.9 1016.02 1551.72 1006.95 1538.37 C 1003.31 1535.6 1004.7 1524.94 1009.41 1525.29 C 1043.3 1527.8 1071.19 1531.18 1104.65 1520.54 C 1145.51 1507.55 1170.91 1480.99 1196.13 1447.77 C 1201.89 1440.17 1213.06 1427 1221.13 1421.97 z M 1071.37 1749.82 L 1070.38 1746.35 C 1068.38 1746.21 1067.67 1745.69 1066.76 1746.83 C 1062.65 1751.94 1060.64 1764.34 1059.12 1770.86 C 1062.3 1763.82 1070.35 1752.98 1071.37 1749.82 z" fill="rgb(49,70,60)" transform="translate(0,0)"></path>
<path d="M 1213.69 1451.89 C 1211.35 1465.57 1207.9 1478.81 1205.83 1492.49 C 1199.29 1535.75 1201.22 1579.88 1227.71 1616.46 C 1234.47 1625.78 1238.45 1630.14 1246.61 1638.49 C 1243.98 1640.46 1243.73 1640.88 1242.21 1643.8 C 1244.3 1645.57 1243.1 1644.89 1246.24 1645.15 C 1250.38 1643.02 1248.43 1643.08 1252.2 1643.97 L 1258.02 1649.62 C 1193.51 1651.24 1154.72 1657.2 1106.8 1706.74 C 1101.04 1712.69 1073.08 1749.11 1071.37 1749.82 L 1070.38 1746.35 L 1070.21 1744.49 C 1068.35 1744.38 1068.39 1744.36 1066.49 1744.53 C 1068.35 1735.94 1070.74 1727.5 1073.03 1719.02 C 1085.37 1673.2 1083.76 1620.14 1057.39 1579.32 C 1048.59 1565.69 1037.81 1553.49 1027.82 1540.71 C 1086.66 1543.86 1122.71 1541.28 1170.18 1501.64 C 1188.45 1486.38 1198.19 1466.52 1213.69 1451.89 z" fill="rgb(235,193,117)" transform="translate(0,0)"></path>
<path d="M 1328.97 354.237 C 1329.65 354.162 1330.33 354.098 1331.01 354.046 C 1356.32 352.171 1381.92 369.207 1400.25 385.212 C 1464.69 441.466 1501.86 527.084 1516.11 610.121 C 1517.87 620.367 1519.91 631.392 1521.03 641.68 C 1521.55 646.391 1520.97 650.217 1517.81 653.788 C 1507.17 658.781 1503.44 650.236 1499.11 642.246 C 1478.24 611.274 1460.86 585.005 1434.04 558.681 C 1417.65 542.603 1403.12 529.054 1385.42 514.064 C 1352.34 485.546 1302.92 458.289 1292.85 412.543 C 1286.33 382.943 1298.67 360.525 1328.97 354.237 z" fill="rgb(49,70,60)" transform="translate(0,0)"></path>
<path d="M 919.904 166.469 C 928.943 166.345 937.981 166.664 946.988 167.425 C 973.02 169.431 1006.37 176.281 1024.43 196.977 C 1039.19 213.887 1030.47 238.304 1013.79 250.27 C 973.307 279.306 913.838 263.939 868.904 255.526 C 851.402 252.292 833.816 249.533 816.165 247.253 C 786.568 243.193 755.976 242.877 726.113 243.517 C 718.79 243.674 688.846 247.046 685.093 244.024 C 685.55 241.866 685.936 240.091 687.882 238.679 C 752.758 191.613 842.553 170.327 919.904 166.469 z" fill="rgb(49,70,60)" transform="translate(0,0)"></path>
<path d="M 713.149 928.423 C 744.833 928.313 776.56 945.394 794.041 971.86 C 798.816 979.089 815.054 1011.83 802.894 1016.25 C 800.622 1015.89 798.986 1014.96 797.418 1013.27 C 785.416 1000.35 774.635 987.151 760.1 976.801 C 737.342 960.593 701.913 942.713 681.617 972.872 C 668.728 992.024 672.653 1015.1 677.011 1036.23 C 680.619 1047.47 685.858 1058.13 692.559 1067.85 C 702.961 1083.23 716.221 1094.48 726.501 1109.53 C 726.487 1110.44 726.474 1111.35 726.46 1112.27 L 724.398 1113.7 C 712.272 1114.58 693.407 1104.95 684.331 1097.14 C 629.866 1050.27 622.113 935.669 713.149 928.423 z" fill="rgb(49,70,60)" transform="translate(0,0)"></path>
<path d="M 427.634 1528.49 C 435.261 1533.59 451.117 1551.22 461.053 1558.72 C 511.062 1596.45 549.283 1599.57 606.561 1605.85 L 595.514 1611.14 C 592.901 1612.28 590.244 1613.31 587.549 1614.23 C 557.848 1624.46 521.186 1621.75 492.933 1607.99 C 459.485 1591.69 439.233 1563.28 427.634 1528.49 z" fill="rgb(49,70,60)" transform="translate(0,0)"></path>
<path d="M 1829.37 981.831 L 1830.19 982.516 C 1830.44 985.132 1821.53 1032.07 1820.41 1039.48 C 1810.23 1106.42 1831.28 1129.67 1868.81 1179.06 C 1867.53 1179.82 1847.39 1180.11 1844.26 1180.22 C 1768.79 1182.99 1731.1 1219.49 1690.11 1277.51 L 1688.89 1278.47 L 1688.2 1277.68 C 1689.02 1271.31 1686.65 1263.9 1687.13 1261.84 C 1706.3 1179.69 1703.34 1146.3 1649.55 1071.65 C 1744.38 1074.43 1770.73 1048.29 1829.37 981.831 z" fill="rgb(235,193,117)" transform="translate(0,0)"></path>
<path d="M 238.654 810.912 L 239.286 811.681 C 237.878 823.404 233.844 839.351 232.185 852.835 C 225.938 903.616 243.913 934.036 274.533 972.378 C 247.285 973.654 212.042 981.032 188.339 994.775 C 163.831 1008.99 142.32 1037.6 127.066 1061.13 L 126.043 1061.07 C 126.524 1057.18 126.201 1048.27 126.885 1045.85 C 143.396 987.338 129.827 932.646 92.4273 883.529 C 172.518 876.648 184.987 871.433 238.654 810.912 z" fill="rgb(235,193,117)" transform="translate(0,0)"></path>
<metadata><recraft-signature>{"signed_by": "recraft", "signature_b64": "H1L43OeJIml7iZRdu/Jr1hCzAC1EMBbhwFYseQz30aaYjUsWxIE/wQn40/3a5GtVPgMm2BuCphB3rrJ9jW80Bg==", "signing_algo": "Ed25519", "generation_timestamp": 1782789461, "identifier": "56677421-3ec2-4912-a070-f2541d5143b9"}</recraft-signature></metadata></svg>