<svg xmlns="http://www.w3.org/2000/svg" height="1024" preserveAspectRatio="none" style="display: block;" version="1.1" viewBox="0 0 2048 2048" width="1024">
<defs>
	<linearGradient gradientUnits="userSpaceOnUse" id="Gradient1" x1="1091.94" x2="1099.67" y1="772.827" y2="775.06">
		<stop class="stop0" offset="0" stop-color="rgb(252,227,123)" stop-opacity="0.788235"></stop>
		<stop class="stop1" offset="1" stop-color="rgb(253,228,124)" stop-opacity="0.85098"></stop>
	</linearGradient>
	<linearGradient gradientUnits="userSpaceOnUse" id="Gradient2" x1="1350.07" x2="1363.88" y1="1011.93" y2="1042.15">
		<stop class="stop0" offset="0" stop-color="rgb(252,227,124)" stop-opacity="0.717647"></stop>
		<stop class="stop1" offset="1" stop-color="rgb(253,220,119)" stop-opacity="0.890196"></stop>
	</linearGradient>
	<linearGradient gradientUnits="userSpaceOnUse" id="Gradient3" x1="1593.12" x2="1614.58" y1="1167.03" y2="1164.9">
		<stop class="stop0" offset="0" stop-color="rgb(255,229,119)" stop-opacity="0.796078"></stop>
		<stop class="stop1" offset="1" stop-color="rgb(255,231,125)" stop-opacity="0.909804"></stop>
	</linearGradient>
</defs>
<path d="M 732.025 788.743 C 752.086 788.514 772.145 789.305 792.125 791.112 C 797.424 791.591 802.717 792.142 808.001 792.764 C 874.766 800.622 939.706 819.79 1000.04 849.446 C 1004.58 851.681 1009.1 853.975 1013.59 856.326 C 1036.54 868.346 1058.67 881.859 1079.85 896.778 C 1083.86 899.603 1087.83 902.477 1091.77 905.401 C 1137.5 939.349 1178.1 979.717 1212.3 1025.26 C 1215.57 1029.6 1218.77 1033.99 1221.92 1038.43 C 1229.78 1049.52 1237.26 1060.88 1244.34 1072.48 C 1246.76 1076.46 1249.14 1080.46 1251.47 1084.5 C 1257.34 1094.64 1262.9 1104.96 1268.16 1115.43 C 1270.3 1119.72 1272.4 1124.02 1274.44 1128.36 C 1304.24 1191.56 1322.62 1259.53 1328.73 1329.13 C 1329.44 1337.19 1329.98 1345.27 1330.36 1353.35 C 1332.66 1402.78 1328.76 1452.31 1318.75 1500.78 C 1317.5 1506.81 1316.16 1512.82 1314.72 1518.81 C 1243.38 1816.82 956.476 2011.19 653.255 1966.94 C 350.034 1922.68 130.649 1654.43 147.45 1348.46 C 164.25 1042.48 411.687 799.859 717.931 789.072 C 722.627 788.906 727.326 788.797 732.025 788.743 z M 769.507 1946.94 C 1082.32 1930.12 1322.14 1662.68 1304.9 1349.89 C 1287.65 1037.1 1019.89 797.649 707.12 815.323 C 394.96 832.962 156.071 1100.1 173.282 1412.28 C 190.493 1724.47 457.3 1963.72 769.507 1946.94 z" fill="rgb(17,67,74)" transform="translate(0,0)"></path>
<path d="M 1004.91 1027.3 C 1011.47 1027.43 1015.76 1033.64 1017.03 1039.21 C 1020.1 1052.77 1040.93 1090.41 1036.08 1101.28 C 1033.59 1103.18 1030.61 1104.7 1027.58 1105.49 C 999.32 1112.84 970.933 1119.95 943.301 1129.53 C 1015.66 1173.24 1000.3 1282.5 966.724 1346.2 C 930.188 1415.52 841.901 1493.58 760.393 1449.29 C 716.42 1425.2 700.556 1374.75 703.038 1327.46 C 706.175 1267.7 730.903 1224.05 767.429 1178.91 C 760.134 1180.09 747.336 1185.77 740.633 1183.97 C 738.05 1183.28 736.364 1181.83 735.267 1179.42 C 732.511 1173.36 732.445 1116.08 735.595 1110.35 C 737.173 1107.48 741.336 1106.36 744.289 1105.28 C 784.963 1090.41 827.846 1079.93 869.288 1067.25 C 898.245 1058.31 927.254 1049.54 956.312 1040.93 C 970.823 1036.64 990.401 1030.3 1004.91 1027.3 z M 785.892 1441.65 C 907.508 1469.37 1022.91 1272.76 961.373 1169.85 C 954.305 1158.03 931.909 1138.84 918.535 1137.09 C 899.878 1143.8 804.009 1166.84 795.599 1173.95 C 743.236 1218.2 701.42 1313.81 726.795 1382.07 C 737.817 1411.72 756.079 1431.6 785.892 1441.65 z" fill="rgb(17,67,74)" transform="translate(0,0)"></path>
<path d="M 828.214 1216.25 C 884.063 1208.79 843.694 1306.81 794.781 1323.17 C 758.412 1327.74 768.492 1286.85 777.447 1266.7 C 788.497 1241.83 802.972 1226.15 828.214 1216.25 z" fill="rgb(17,67,74)" transform="translate(0,0)"></path>
<path d="M 998.486 1045.1 C 1002.31 1045.6 1016.63 1085.27 1018.89 1091.46 C 954.737 1107.92 891.504 1128.7 827.599 1146.18 C 807.845 1151.58 787.509 1157.07 768.109 1163.53 L 750.05 1169.53 C 750.332 1152.46 750.292 1135.4 749.93 1118.33 C 832.082 1096.83 916.02 1068.36 998.486 1045.1 z" fill="rgb(233,114,81)" transform="translate(0,0)"></path>
<path d="M 630.657 848.25 C 641.989 845.487 643.406 855.717 646.003 864.33 C 653.053 887.715 659.257 911.281 666.521 934.62 L 692.936 1020.46 C 698.162 1037.1 704.325 1054.25 709.107 1070.9 C 712.016 1080.82 714.327 1090.92 716.029 1101.12 C 698.94 1112.8 680.907 1123.63 663.056 1134.11 C 650.76 1141.33 647.651 1138.53 642.586 1126.95 C 641.41 1130.64 640.195 1134.33 638.943 1138 C 636.695 1144.6 634.315 1151.15 631.852 1157.68 C 603.762 1232.12 520.7 1309.43 435.365 1280.08 C 416.857 1272.77 396.713 1255.71 386.606 1238.72 C 334.039 1150.37 389.441 1021.51 471.492 971.277 C 510.831 947.191 540.795 943.514 583.75 953.24 C 580.769 933.491 554.505 879.107 557.952 865.67 C 563.526 860.542 619.038 850.749 630.657 848.25 z M 475.623 1269.96 C 548.99 1263.22 598.13 1205.22 622.011 1139.17 C 626.434 1126.94 629.825 1114.32 633.739 1101.9 C 631.484 1095.17 629.37 1088.36 627.264 1081.58 C 616.038 1045.44 601.307 1009.69 590.156 973.615 C 571.986 967.122 563.281 962.51 543.129 963.397 C 467.572 967.826 412.449 1038.3 390.455 1105.98 C 369.034 1171.89 389.565 1272.45 475.623 1269.96 z" fill="rgb(17,67,74)" transform="translate(0,0)"></path>
<path d="M 562.654 1080.23 C 614.169 1075.67 577.123 1172.55 527.236 1187.07 C 478.55 1190.85 508.752 1097.81 562.654 1080.23 z" fill="rgb(17,67,74)" transform="translate(0,0)"></path>
<path d="M 625.698 865.224 L 629.078 865.037 C 630.802 867.062 640.794 901.883 642.374 907.639 C 659.756 970.963 680.955 1032.61 701.152 1094.99 C 686.534 1100.68 671.899 1112.35 657.749 1118.46 L 656.023 1117.74 C 648.763 1098.77 643.686 1078.73 636.673 1059.65 C 614.231 998.589 594.311 937.83 575.64 875.512 C 591.747 871.616 609.342 868.451 625.698 865.224 z" fill="rgb(233,114,81)" transform="translate(0,0)"></path>
<path d="M 437.179 1409.44 C 496.718 1408.86 557.525 1424.15 608.603 1456.19 C 672.994 1497.15 724.556 1561.85 744.66 1635.62 C 764.607 1708.82 703.171 1776.33 633.054 1729.26 C 616.165 1716.56 590.788 1686.59 575.744 1671.26 C 527.422 1621.99 475.546 1597.59 408.875 1582.88 C 381.657 1576.38 355.486 1567.85 333.756 1549.82 C 304.363 1525.44 295.03 1478.72 322.282 1449.07 C 350.812 1418.04 396.967 1412.03 437.179 1409.44 z M 654.264 1598.22 C 663.42 1591.94 670.328 1587.15 680.099 1581.83 C 687.591 1577.72 691.184 1576.15 699.221 1573.14 C 694.547 1563.45 687.726 1554.52 681.62 1545.67 C 631.369 1472.85 541.3 1430.28 454.268 1427.08 C 459.735 1450.91 457.854 1460.57 454.406 1484.7 C 459.271 1486.15 464.174 1487.53 469.098 1488.76 C 541.818 1506.91 598.906 1549.79 654.264 1598.22 z M 402.754 1565.41 C 418.638 1569.16 433.062 1571.32 449.033 1575.84 C 492.866 1588.26 530.281 1610.18 564.852 1639.4 C 576.98 1649.65 589.472 1664.15 600.782 1673.27 L 601.642 1674.41 C 605.257 1669.74 608.211 1658.29 611.304 1652.36 C 620.152 1635.4 630.365 1623.12 643 1609 C 628.947 1598.38 616.28 1586.25 602.258 1575.8 C 554.36 1540.08 508.307 1515.17 449.977 1501.72 C 437.478 1532.59 427.465 1543.71 402.754 1565.41 z" fill="rgb(17,67,74)" transform="translate(0,0)"></path>
<path d="M 419.581 1427.42 C 424.731 1426.79 434.057 1427.01 439.53 1426.99 C 448.918 1485.77 428.421 1523.65 384.168 1560.3 C 375.523 1556.41 367.79 1552.87 359.327 1548.53 C 355.002 1545.86 351.478 1543.43 347.422 1540.41 C 324.003 1522.92 311.087 1485.74 332.636 1461.51 C 353.647 1437.89 389.175 1429.85 419.581 1427.42 z" fill="rgb(130,52,56)" transform="translate(0,0)"></path>
<path d="M 705.267 1587.69 L 707.296 1588.22 C 727.954 1614.49 739.415 1666.98 725.563 1698.61 C 711.246 1731.3 680.778 1736.25 651.195 1722.31 C 635.991 1713.51 625.201 1701.38 613.953 1688.21 C 614.465 1686.51 614.997 1684.8 615.55 1683.11 C 631.468 1634.4 661.45 1609.88 705.267 1587.69 z" fill="rgb(130,52,56)" transform="translate(0,0)"></path>
<path d="M 1206.73 1274.21 C 1233.64 1271.87 1235.27 1294.96 1234.36 1315.85 C 1231.93 1371.46 1197.45 1428.67 1147.74 1454.39 C 1137.49 1458.04 1127.53 1457.36 1124.89 1444.51 C 1112.86 1385.99 1145.94 1294.1 1206.73 1274.21 z" fill="rgb(233,114,81)" transform="translate(0,0)"></path>
<path d="M 1042.31 1637.16 C 1074.47 1634.2 1069.4 1657.99 1060.46 1679.8 C 1045.94 1715.19 1013.79 1746.14 978.336 1760.42 C 968.334 1763.04 953.723 1762.5 953.314 1750.03 C 951.626 1698.54 995.35 1647.32 1042.31 1637.16 z" fill="rgb(233,114,81)" transform="translate(0,0)"></path>
<path d="M 928.19 882.369 C 947.285 882.088 960.716 891.388 946.022 909.627 C 929.302 930.38 908.852 938.928 883.129 942.66 C 857.568 945.446 853.164 928.683 868.651 911.181 C 884.145 893.671 905.158 884.62 928.19 882.369 z" fill="rgb(233,114,81)" transform="translate(0,0)"></path>
<path d="M 382.997 1666.98 C 417.043 1674.17 421.736 1761.39 397.948 1767.82 C 368.882 1753.57 352 1684.15 382.997 1666.98 z" fill="rgb(233,114,81)" transform="translate(0,0)"></path>
<path d="M 693.951 1417.63 C 701.723 1418.94 710.772 1428.49 715.923 1434.07 C 743.316 1463.74 778.072 1485.66 819.593 1485.89 C 829.148 1485.94 846.652 1481.28 854.23 1486.84 C 856.112 1490.1 855.915 1490.04 855.571 1493.62 C 853.878 1497.07 852.464 1497.42 849.096 1499.3 C 792.304 1510.85 747.895 1489.81 708.148 1450.03 C 699.436 1441.32 677.539 1428.56 693.951 1417.63 z" fill="rgb(17,67,74)" transform="translate(0,0)"></path>
<path d="M 738.691 1801.35 C 755.997 1800.87 762.864 1809.3 752.358 1824.45 C 738.345 1844.64 717.472 1857.69 693.686 1863.18 C 669.431 1865.3 668.641 1853.53 681.733 1836.28 C 695.642 1817.95 715.66 1804.61 738.691 1801.35 z" fill="rgb(233,114,81)" transform="translate(0,0)"></path>
<path d="M 343.125 1212.91 C 344.224 1213.13 348.689 1213.95 349.315 1215.18 C 357.498 1231.21 365.048 1249.93 377.587 1263.05 C 399.102 1285.57 431.221 1299.25 461.018 1306.24 C 469.204 1308.16 498.317 1310.61 481.457 1324.32 C 428.263 1323.74 361.842 1289.64 342.279 1238.48 C 338.368 1228.25 331.181 1220.41 343.125 1212.91 z" fill="rgb(17,67,74)" transform="translate(0,0)"></path>
<path d="M 336.07 1268.81 C 347.274 1269.03 346.736 1278.12 355.399 1287.07 C 365.654 1298.23 378.682 1306.06 391.78 1313.25 C 401.11 1318.38 435.751 1322.4 422.452 1338.06 C 403.168 1339.26 376.403 1325.28 361.627 1313.41 C 350.31 1304.32 323.658 1284.56 336.07 1268.81 z" fill="rgb(17,67,74)" transform="translate(0,0)"></path>
<path d="M 714.096 1474.54 C 722.997 1477.34 743.46 1497.56 758.627 1504.12 C 773.122 1511.65 790.626 1512.53 804.815 1519.85 C 810.449 1522.76 805.807 1529.66 802.653 1532.41 C 800.761 1532.39 798.871 1532.31 796.985 1532.18 C 769.236 1530.19 731.821 1511.72 712.36 1491.65 C 706.086 1485.18 707.563 1479.78 714.096 1474.54 z" fill="rgb(17,67,74)" transform="translate(0,0)"></path>
<path d="M 717.931 789.072 C 687.031 664.278 727.774 532.201 858.117 493.25 C 886.117 484.308 908.679 474.661 931.334 455.772 C 974.275 419.97 971.728 366.197 989.169 319.273 C 1016.05 246.963 1092.34 198.969 1164.11 181.679 C 1176.63 178.606 1189.33 176.322 1202.14 174.841 C 1217.06 173.152 1294.61 168.016 1299.31 182.413 C 1297.06 185.214 1244.8 200.712 1236.15 204.287 C 1202.06 218.375 1173.9 237.671 1149.03 265.013 C 1132.62 283.053 1118.38 303.775 1108.64 326.186 C 1096.65 353.762 1091.13 383.278 1084.48 412.434 C 1076.39 447.874 1065.23 484.965 1045.83 515.891 C 1024.29 550.218 995.819 576.159 960.555 595.826 C 943.333 605.43 925.081 613.097 907.777 622.533 C 863.716 646.56 839.771 680.635 824.067 727.339 C 817.089 748.092 810.117 770.965 808.001 792.764 C 802.717 792.142 797.424 791.591 792.125 791.112 C 772.145 789.305 752.086 788.514 732.025 788.743 C 727.326 788.797 722.627 788.906 717.931 789.072 z M 830.737 599.917 C 822.291 608.551 810.805 621.777 805.071 632.428 C 800.384 640.982 800.097 643.589 794.378 651.755 C 787.896 662.388 773.102 698.21 770.718 710.434 C 770.577 712.622 770.22 716.433 770.233 718.491 C 773.673 720.588 775.817 721.919 779.822 720.704 C 785.421 715.06 797.12 680.795 801.745 670.915 C 805.537 662.815 810.385 652.352 814.551 643.974 C 841.353 603.359 865.524 586.236 909.649 565.821 C 966.251 539.634 1003.4 499.336 1023.67 439.955 C 1026.36 434.895 1029.89 421.709 1031.57 415.718 L 1033.41 409.134 C 1038.97 388.186 1043.23 367.018 1049.57 346.342 C 1066.51 300.359 1100.53 260.828 1140.15 232.391 C 1146.5 227.835 1162.83 219.399 1163.98 211.473 C 1152.61 199.115 1108.89 238.099 1099.62 247.295 C 1072.75 273.951 1040.2 316.839 1031.66 353.687 C 1029.47 359.843 1022.72 386.371 1022.05 392.897 C 1015.5 418.88 1011.77 432.167 1001.37 456.877 C 975.123 508.454 950.116 530.865 897.28 555.886 C 869.534 569.026 852.69 577.76 830.737 599.917 z" fill="rgb(233,114,81)" transform="translate(0,0)"></path>
<path d="M 717.931 789.072 C 687.031 664.278 727.774 532.201 858.117 493.25 C 886.117 484.308 908.679 474.661 931.334 455.772 C 974.275 419.97 971.728 366.197 989.169 319.273 C 1016.05 246.963 1092.34 198.969 1164.11 181.679 C 1176.63 178.606 1189.33 176.322 1202.14 174.841 C 1217.06 173.152 1294.61 168.016 1299.31 182.413 C 1297.06 185.214 1244.8 200.712 1236.15 204.287 C 1202.06 218.375 1173.9 237.671 1149.03 265.013 C 1132.62 283.053 1118.38 303.775 1108.64 326.186 C 1096.65 353.762 1091.13 383.278 1084.48 412.434 C 1076.39 447.874 1065.23 484.965 1045.83 515.891 C 1024.29 550.218 995.819 576.159 960.555 595.826 C 943.333 605.43 925.081 613.097 907.777 622.533 C 863.716 646.56 839.771 680.635 824.067 727.339 C 817.089 748.092 810.117 770.965 808.001 792.764 C 802.717 792.142 797.424 791.591 792.125 791.112 C 805.964 723.76 825.742 648.425 891.146 614.753 C 948.282 585.338 987.747 571.924 1027.48 516.811 C 1072.63 454.196 1066.77 386.306 1096.97 319.318 C 1125.83 255.279 1179.4 211.248 1244.72 187.191 C 1229.11 186.92 1213.5 187.816 1198.02 189.87 C 1155.39 195.621 1114.32 210.121 1078.65 234.288 C 960.682 314.227 1017.75 395.727 943.315 465.069 C 933.6 474.12 922.113 481.343 910.418 487.539 C 893.191 496.667 875.195 502.613 856.914 509.122 C 818.098 522.943 788.678 543.134 763.749 576.275 C 715.364 640.599 721.227 714.062 732.025 788.743 C 727.326 788.797 722.627 788.906 717.931 789.072 z" fill="rgb(82,32,57)" transform="translate(0,0)"></path>
<path d="M 1001.37 456.877 C 1000.92 459.422 1000.51 461.544 1000.3 464.142 L 1002.68 464.746 L 1003.29 467.171 L 1004.88 467.307 C 1014.42 459.384 1011.64 450.486 1022.87 440.644 L 1023.67 439.955 C 1003.4 499.336 966.251 539.634 909.649 565.821 C 865.524 586.236 841.353 603.359 814.551 643.974 C 815.925 627.259 828.661 624.461 833.312 608.825 C 834.44 605.034 832.712 603.592 830.737 599.917 C 852.69 577.76 869.534 569.026 897.28 555.886 C 950.116 530.865 975.123 508.454 1001.37 456.877 z" fill="rgb(253,224,119)" fill-opacity="0.988235" transform="translate(0,0)"></path>
<path d="M 1031.66 353.687 C 1040.2 316.839 1072.75 273.951 1099.62 247.295 C 1108.89 238.099 1152.61 199.115 1163.98 211.473 C 1162.83 219.399 1146.5 227.835 1140.15 232.391 C 1100.53 260.828 1066.51 300.359 1049.57 346.342 C 1047.39 344.396 1048.06 345.267 1046.95 342.496 C 1047.36 337.745 1049.6 334.757 1051.99 330.537 C 1050.4 327.467 1049.7 325.082 1046.43 324.119 C 1041.49 327.679 1040.62 337.628 1038.02 343.775 L 1036.43 347.784 C 1035.55 348.905 1032.52 352.977 1031.66 353.687 z" fill="rgb(253,224,119)" fill-opacity="0.984314" transform="translate(0,0)"></path>
<path d="M 830.737 599.917 C 832.712 603.592 834.44 605.034 833.312 608.825 C 828.661 624.461 815.925 627.259 814.551 643.974 C 810.385 652.352 805.537 662.815 801.745 670.915 C 797.12 680.795 785.421 715.06 779.822 720.704 C 775.817 721.919 773.673 720.588 770.233 718.491 C 786.494 717.741 779.114 709.863 786.059 699.294 C 790.393 693 792.991 678.374 796.85 670.046 C 799.923 663.415 804.304 660.22 805.155 655.055 C 806.634 644.591 816.333 639.013 805.071 632.428 C 810.805 621.777 822.291 608.551 830.737 599.917 z" fill="rgb(254,227,122)" fill-opacity="0.835294" transform="translate(0,0)"></path>
<path d="M 1031.66 353.687 C 1032.52 352.977 1035.55 348.905 1036.43 347.784 C 1035.76 351.529 1034.95 353.681 1036.29 357.207 C 1039.67 358.913 1039.97 358.25 1043.21 355.841 L 1042.71 356.554 C 1040.64 359.417 1040.47 359.652 1037.77 361.806 C 1037.32 365.093 1038.12 366.677 1039.11 369.83 C 1038.34 372.697 1037.92 372.662 1035.74 374.829 C 1035.54 387.734 1032.77 392.629 1031.07 404.931 C 1031.06 404.961 1033.04 408.622 1033.41 409.134 L 1031.57 415.718 C 1027.88 419.381 1024.18 424.397 1018.69 424.197 L 1017.2 422.104 C 1023.33 421.776 1032.07 415.963 1029.57 410.125 C 1025.23 407.561 1025.76 411.041 1023.5 410.603 L 1022.99 408.613 L 1022.23 409.161 L 1022.5 410.444 L 1021.42 410.609 L 1020.49 413.327 C 1019.94 404.711 1023.16 400.755 1022.05 392.897 C 1022.72 386.371 1029.47 359.843 1031.66 353.687 z" fill="rgb(253,224,119)" fill-opacity="0.839216" transform="translate(0,0)"></path>
<path d="M 1022.05 392.897 C 1023.16 400.755 1019.94 404.711 1020.49 413.327 C 1019.2 416.317 1017.92 418.924 1017.2 422.104 L 1018.69 424.197 C 1024.18 424.397 1027.88 419.381 1031.57 415.718 C 1029.89 421.709 1026.36 434.895 1023.67 439.955 L 1022.87 440.644 C 1011.64 450.486 1014.42 459.384 1004.88 467.307 L 1003.29 467.171 L 1002.68 464.746 L 1000.3 464.142 C 1000.51 461.544 1000.92 459.422 1001.37 456.877 C 1011.77 432.167 1015.5 418.88 1022.05 392.897 z M 1016.19 444.595 C 1017.71 441.39 1019.09 439.448 1018.73 435.972 C 1016.49 432.786 1017.9 434.128 1013.94 432.297 C 1012.26 436.511 1011.08 438.657 1010.83 443.173 L 1011.75 444.943 C 1014.08 445.32 1013.92 445.282 1016.19 444.595 z" fill="rgb(253,224,119)" fill-opacity="0.854902" transform="translate(0,0)"></path>
<path d="M 1013.94 432.297 C 1017.9 434.128 1016.49 432.786 1018.73 435.972 C 1019.09 439.448 1017.71 441.39 1016.19 444.595 C 1013.92 445.282 1014.08 445.32 1011.75 444.943 L 1010.83 443.173 C 1011.08 438.657 1012.26 436.511 1013.94 432.297 z" fill="rgb(253,224,119)" fill-opacity="0.811765" transform="translate(0,0)"></path>
<path d="M 1038.02 343.775 C 1040.62 337.628 1041.49 327.679 1046.43 324.119 C 1049.7 325.082 1050.4 327.467 1051.99 330.537 C 1049.6 334.757 1047.36 337.745 1046.95 342.496 C 1048.06 345.267 1047.39 344.396 1049.57 346.342 C 1043.23 367.018 1038.97 388.186 1033.41 409.134 C 1033.04 408.622 1031.06 404.961 1031.07 404.931 C 1032.77 392.629 1035.54 387.734 1035.74 374.829 C 1037.92 372.662 1038.34 372.697 1039.11 369.83 C 1038.12 366.677 1037.32 365.093 1037.77 361.806 C 1040.47 359.652 1040.64 359.417 1042.71 356.554 L 1043.21 355.841 C 1044.58 352.326 1045.37 348.608 1043.9 345.051 C 1040.48 342.948 1042.34 343.489 1038.02 343.775 z" fill="rgb(253,224,119)" fill-opacity="0.862745" transform="translate(0,0)"></path>
<path d="M 770.718 710.434 C 773.102 698.21 787.896 662.388 794.378 651.755 C 794.54 656.907 793.776 656.285 796.069 660.156 C 800.745 661.655 802.318 658.496 805.155 655.055 C 804.304 660.22 799.923 663.415 796.85 670.046 C 792.991 678.374 790.393 693 786.059 699.294 C 787.187 695.518 788.255 693.472 787.217 689.706 C 784.754 687.407 786.138 687.905 783.079 687.79 C 775.9 693.098 778.398 703.164 770.718 710.434 z" fill="rgb(254,227,122)" fill-opacity="0.756863" transform="translate(0,0)"></path>
<path d="M 770.718 710.434 C 778.398 703.164 775.9 693.098 783.079 687.79 C 786.138 687.905 784.754 687.407 787.217 689.706 C 788.255 693.472 787.187 695.518 786.059 699.294 C 779.114 709.863 786.494 717.741 770.233 718.491 C 770.22 716.433 770.577 712.622 770.718 710.434 z" fill="rgb(254,227,122)" fill-opacity="0.423529" transform="translate(0,0)"></path>
<path d="M 805.071 632.428 C 816.333 639.013 806.634 644.591 805.155 655.055 C 802.318 658.496 800.745 661.655 796.069 660.156 C 793.776 656.285 794.54 656.907 794.378 651.755 C 800.097 643.589 800.384 640.982 805.071 632.428 z" fill="rgb(254,227,122)" fill-opacity="0.615686" transform="translate(0,0)"></path>
<path d="M 1038.02 343.775 C 1042.34 343.489 1040.48 342.948 1043.9 345.051 C 1045.37 348.608 1044.58 352.326 1043.21 355.841 C 1039.97 358.25 1039.67 358.913 1036.29 357.207 C 1034.95 353.681 1035.76 351.529 1036.43 347.784 L 1038.02 343.775 z M 1039.54 358.265 C 1040.28 353.354 1041.01 350.342 1039.18 345.618 C 1038.11 350.785 1037.69 353.17 1039.54 358.265 z" fill="rgb(253,224,119)" fill-opacity="0.8" transform="translate(0,0)"></path>
<path d="M 1039.18 345.618 C 1041.01 350.342 1040.28 353.354 1039.54 358.265 C 1037.69 353.17 1038.11 350.785 1039.18 345.618 z" fill="rgb(253,224,119)" fill-opacity="0.745098" transform="translate(0,0)"></path>
<path d="M 1020.49 413.327 L 1021.42 410.609 L 1022.5 410.444 L 1022.23 409.161 L 1022.99 408.613 L 1023.5 410.603 C 1025.76 411.041 1025.23 407.561 1029.57 410.125 C 1032.07 415.963 1023.33 421.776 1017.2 422.104 C 1017.92 418.924 1019.2 416.317 1020.49 413.327 z" fill="rgb(253,224,119)" fill-opacity="0.729412" transform="translate(0,0)"></path>
<path d="M 1328.73 1329.13 C 1338.15 1316.75 1345.33 1305.45 1355.96 1294.42 C 1386.47 1262.76 1424.31 1250.67 1465 1238.49 C 1481.73 1233.48 1501.35 1221.61 1514.51 1210.12 C 1535.22 1191.53 1548.29 1164.85 1557.19 1138.9 C 1570.95 1093.26 1587.38 1056.17 1626.22 1026.54 C 1676.57 988.105 1740.31 986.868 1799.69 1001.34 C 1806.43 1002.98 1819.47 1005.61 1822.69 1012.32 C 1822.53 1014.32 1822.51 1017.06 1820.38 1018.2 C 1812.61 1022.35 1798.68 1021.69 1788.88 1023.71 C 1754.57 1030.81 1728.7 1044.04 1704.31 1069.16 C 1650.66 1124.39 1661.03 1211.49 1618.21 1273.37 C 1591.84 1311.47 1544.61 1342.13 1501.31 1354.03 C 1443.84 1369.83 1419.6 1391.37 1395.16 1446.04 C 1379.71 1480.58 1349.81 1503.53 1314.72 1518.81 C 1316.16 1512.82 1317.5 1506.81 1318.75 1500.78 C 1328.76 1452.31 1332.66 1402.78 1330.36 1353.35 C 1329.98 1345.27 1329.44 1337.19 1328.73 1329.13 z M 1606.44 1187.31 C 1610.96 1178.72 1621.66 1143.26 1623.85 1133.3 C 1636.44 1101.61 1642.66 1076.32 1669.71 1052.31 C 1678.45 1044.56 1692.06 1034.86 1699.27 1026.61 C 1645.65 1041.15 1627.39 1075.18 1611.57 1125.73 C 1606.25 1139 1598.3 1164.54 1594.11 1178.67 C 1571.33 1233.64 1554.77 1256.83 1497.26 1280.78 C 1484.44 1286.12 1465.28 1292.85 1453.25 1298.71 C 1409.91 1319.87 1375.77 1356.1 1357.22 1400.62 C 1353.79 1408.81 1345.69 1424.27 1353.86 1431.11 C 1362.9 1431.88 1368.77 1412.65 1371.9 1405.08 C 1392.71 1354.81 1428.23 1322.32 1479.2 1304.38 C 1541.65 1282.39 1584.55 1252.56 1606.44 1187.31 z" fill="rgb(233,114,81)" transform="translate(0,0)"></path>
<path d="M 1328.73 1329.13 C 1338.15 1316.75 1345.33 1305.45 1355.96 1294.42 C 1386.47 1262.76 1424.31 1250.67 1465 1238.49 C 1481.73 1233.48 1501.35 1221.61 1514.51 1210.12 C 1535.22 1191.53 1548.29 1164.85 1557.19 1138.9 C 1570.95 1093.26 1587.38 1056.17 1626.22 1026.54 C 1676.57 988.105 1740.31 986.868 1799.69 1001.34 C 1806.43 1002.98 1819.47 1005.61 1822.69 1012.32 C 1822.53 1014.32 1822.51 1017.06 1820.38 1018.2 C 1812.61 1022.35 1798.68 1021.69 1788.88 1023.71 C 1754.57 1030.81 1728.7 1044.04 1704.31 1069.16 C 1650.66 1124.39 1661.03 1211.49 1618.21 1273.37 C 1591.84 1311.47 1544.61 1342.13 1501.31 1354.03 C 1443.84 1369.83 1419.6 1391.37 1395.16 1446.04 C 1379.71 1480.58 1349.81 1503.53 1314.72 1518.81 C 1316.16 1512.82 1317.5 1506.81 1318.75 1500.78 C 1394.5 1466.68 1378 1411.46 1427.07 1372.84 C 1479.9 1331.28 1558.01 1338.37 1604.07 1268.39 C 1642.81 1209.53 1638.75 1151.9 1668.92 1091.71 C 1690.45 1048.77 1735.45 1023.72 1780.4 1010.57 C 1689.56 1000.69 1618.57 1017.58 1580.89 1111.75 C 1564.48 1152.78 1560.35 1187.84 1525.08 1219.09 C 1472.86 1265.36 1399.41 1254.86 1355.75 1314.89 C 1344.5 1329.57 1340 1337.77 1330.36 1353.35 C 1329.98 1345.27 1329.44 1337.19 1328.73 1329.13 z" fill="rgb(82,32,57)" transform="translate(0,0)"></path>
<path d="M 1606.44 1187.31 C 1584.55 1252.56 1541.65 1282.39 1479.2 1304.38 C 1428.23 1322.32 1392.71 1354.81 1371.9 1405.08 C 1368.77 1412.65 1362.9 1431.88 1353.86 1431.11 C 1345.69 1424.27 1353.79 1408.81 1357.22 1400.62 C 1375.77 1356.1 1409.91 1319.87 1453.25 1298.71 C 1465.28 1292.85 1484.44 1286.12 1497.26 1280.78 C 1554.77 1256.83 1571.33 1233.64 1594.11 1178.67 C 1593.51 1182.86 1592.51 1186.13 1594.07 1189.9 C 1598.72 1192.71 1601.99 1189.81 1606.44 1187.31 z" fill="rgb(254,227,122)" fill-opacity="0.988235" transform="translate(0,0)"></path>
<path d="M 1699.27 1026.61 C 1692.06 1034.86 1678.45 1044.56 1669.71 1052.31 C 1642.66 1076.32 1636.44 1101.61 1623.85 1133.3 C 1621.6 1129.71 1623.82 1127.93 1621.48 1125.19 L 1619.73 1127.87 C 1617.36 1127.53 1618.48 1127.53 1616.38 1127.78 L 1615.31 1130.9 C 1616.32 1134.19 1617.69 1137.02 1616.82 1140.18 C 1613.95 1141.4 1615.46 1141.05 1612.08 1140.47 C 1608.97 1135.54 1614.85 1131.38 1616.22 1123.46 L 1615.04 1122.38 C 1613.21 1125.33 1614.42 1124.35 1611.57 1125.73 C 1627.39 1075.18 1645.65 1041.15 1699.27 1026.61 z" fill="rgb(254,227,122)" fill-opacity="0.980392" transform="translate(0,0)"></path>
<path d="M 1611.57 1125.73 C 1614.42 1124.35 1613.21 1125.33 1615.04 1122.38 L 1616.22 1123.46 C 1614.85 1131.38 1608.97 1135.54 1612.08 1140.47 C 1615.46 1141.05 1613.95 1141.4 1616.82 1140.18 C 1617.69 1137.02 1616.32 1134.19 1615.31 1130.9 L 1616.38 1127.78 C 1618.48 1127.53 1617.36 1127.53 1619.73 1127.87 L 1621.48 1125.19 C 1623.82 1127.93 1621.6 1129.71 1623.85 1133.3 C 1621.66 1143.26 1610.96 1178.72 1606.44 1187.31 C 1601.99 1189.81 1598.72 1192.71 1594.07 1189.9 C 1592.51 1186.13 1593.51 1182.86 1594.11 1178.67 C 1598.3 1164.54 1606.25 1139 1611.57 1125.73 z" fill="url(#Gradient3)" transform="translate(0,0)"></path>
<path d="M 1212.3 1025.26 C 1219.91 1018.58 1228.7 1011.19 1237.74 1006.7 C 1280.85 985.303 1324.26 983.187 1360.27 946.002 C 1395.35 909.769 1396.54 866.53 1413.73 824.235 C 1454.38 724.19 1579.37 683.226 1679.91 690.659 C 1690.6 691.45 1724.13 693.662 1731.38 699.676 C 1733.04 703.674 1732.81 701.666 1732.13 705.921 C 1730.8 707.698 1729.57 708.35 1727.43 708.902 C 1704.04 714.942 1681.67 719.15 1659.17 728.591 C 1628.67 741.687 1600.95 760.478 1577.49 783.957 C 1528.44 832.727 1514.69 878.337 1496.8 942.393 C 1476.95 1013.46 1433.16 1075.8 1363.13 1105.07 C 1345.28 1112.46 1326.77 1118.14 1307.84 1122 C 1297.86 1124.02 1283.6 1125.97 1274.44 1128.36 C 1272.4 1124.02 1270.3 1119.72 1268.16 1115.43 C 1262.9 1104.96 1257.34 1094.64 1251.47 1084.5 C 1249.14 1080.46 1246.76 1076.46 1244.34 1072.48 C 1237.26 1060.88 1229.78 1049.52 1221.92 1038.43 C 1218.77 1033.99 1215.57 1029.6 1212.3 1025.26 z M 1290.18 1060.21 C 1280.95 1062.78 1273.28 1064.96 1263.82 1066.72 C 1266.65 1078.17 1275.05 1077.31 1283.99 1072.58 C 1287.05 1071.38 1291.37 1070.67 1294.7 1069.99 C 1300.62 1069.25 1304.3 1068.42 1310.19 1069.57 C 1311.29 1069.22 1312.38 1068.85 1313.47 1068.48 C 1369.89 1049.15 1418.62 1003.91 1444.9 950.6 L 1445.16 949.639 C 1449.4 940.822 1452.81 931.623 1455.32 922.166 C 1457.38 914.169 1453.87 916.016 1461.01 908.87 C 1462.36 906.001 1464.5 902.185 1464 899.078 C 1462.41 889.164 1468.03 887.973 1471.37 879.854 C 1472.06 878.625 1472.24 878.584 1472.44 877.361 C 1473.52 870.944 1477.06 864.997 1480 859.082 C 1484.56 849.239 1489.48 839.564 1494.75 830.075 C 1513.13 803.223 1528.91 781.321 1554.91 760.68 C 1565.47 752.299 1584.68 740.559 1593.74 732.167 L 1593.49 730.756 C 1582.36 725.379 1542.79 753.286 1533.68 760.548 C 1512.99 778.247 1487.65 810.048 1475.48 834.331 C 1470.19 847.131 1463.44 859.665 1459.38 872.673 C 1455.86 883.902 1449.86 898.607 1447.19 909.105 C 1443.2 921.846 1437.11 935.695 1431.64 947.911 C 1425 959.973 1420.01 969.988 1410.79 980.374 C 1375.06 1022.66 1342.47 1043.83 1290.18 1060.21 z" fill="rgb(233,114,81)" transform="translate(0,0)"></path>
<path d="M 1429.35 973.085 C 1430.46 963.4 1435.15 954.085 1444.9 950.6 C 1418.62 1003.91 1369.89 1049.15 1313.47 1068.48 C 1312.38 1068.85 1311.29 1069.22 1310.19 1069.57 C 1304.3 1068.42 1300.62 1069.25 1294.7 1069.99 C 1296.33 1068.6 1295.76 1069.14 1296.77 1067.06 L 1295.99 1065.49 C 1292.04 1063.75 1290.83 1064.21 1286.33 1064.57 L 1290.18 1060.21 C 1342.47 1043.83 1375.06 1022.66 1410.79 980.374 C 1414.13 983.691 1412.86 983.414 1416.75 984.064 C 1420.95 982.252 1425.09 976.865 1429.35 973.085 z" fill="url(#Gradient2)" transform="translate(0,0)"></path>
<path d="M 1533.68 760.548 C 1546.07 777.528 1498.21 806.067 1494.75 830.075 C 1489.48 839.564 1484.56 849.239 1480 859.082 C 1473.89 846.8 1481.21 849.842 1481.19 839.622 C 1478.97 835.692 1479.76 836.946 1475.48 834.331 C 1487.65 810.048 1512.99 778.247 1533.68 760.548 z" fill="rgb(254,227,122)" fill-opacity="0.780392" transform="translate(0,0)"></path>
<path d="M 1533.68 760.548 C 1542.79 753.286 1582.36 725.379 1593.49 730.756 L 1593.74 732.167 C 1584.68 740.559 1565.47 752.299 1554.91 760.68 C 1528.91 781.321 1513.13 803.223 1494.75 830.075 C 1498.21 806.067 1546.07 777.528 1533.68 760.548 z" fill="rgb(254,227,122)" fill-opacity="0.968627" transform="translate(0,0)"></path>
<path d="M 1431.64 947.911 C 1437.11 935.695 1443.2 921.846 1447.19 909.105 C 1454.11 914.216 1454.33 910.027 1461.01 908.87 C 1453.87 916.016 1457.38 914.169 1455.32 922.166 C 1452.81 931.623 1449.4 940.822 1445.16 949.639 C 1437.77 947.383 1439.75 953.108 1431.64 947.911 z" fill="rgb(254,227,122)" fill-opacity="0.368627" transform="translate(0,0)"></path>
<path d="M 1459.38 872.673 C 1463.82 872.128 1463.4 871.511 1467 872.956 C 1468.24 874.793 1470.34 878.578 1471.37 879.854 C 1468.03 887.973 1462.41 889.164 1464 899.078 C 1464.5 902.185 1462.36 906.001 1461.01 908.87 C 1454.33 910.027 1454.11 914.216 1447.19 909.105 C 1449.86 898.607 1455.86 883.902 1459.38 872.673 z" fill="rgb(254,227,122)" fill-opacity="0.227451" transform="translate(0,0)"></path>
<path d="M 1475.48 834.331 C 1479.76 836.946 1478.97 835.692 1481.19 839.622 C 1481.21 849.842 1473.89 846.8 1480 859.082 C 1477.06 864.997 1473.52 870.944 1472.44 877.361 C 1472.24 878.584 1472.06 878.625 1471.37 879.854 C 1470.34 878.578 1468.24 874.793 1467 872.956 C 1463.4 871.511 1463.82 872.128 1459.38 872.673 C 1463.44 859.665 1470.19 847.131 1475.48 834.331 z" fill="rgb(254,227,122)" fill-opacity="0.658824" transform="translate(0,0)"></path>
<path d="M 1410.79 980.374 C 1420.01 969.988 1425 959.973 1431.64 947.911 C 1439.75 953.108 1437.77 947.383 1445.16 949.639 L 1444.9 950.6 C 1435.15 954.085 1430.46 963.4 1429.35 973.085 C 1425.09 976.865 1420.95 982.252 1416.75 984.064 C 1412.86 983.414 1414.13 983.691 1410.79 980.374 z" fill="rgb(254,227,122)" fill-opacity="0.568627" transform="translate(0,0)"></path>
<path d="M 1263.82 1066.72 C 1273.28 1064.96 1280.95 1062.78 1290.18 1060.21 L 1286.33 1064.57 C 1282.41 1066.67 1283.34 1065.53 1281.1 1068.97 L 1281.67 1071.21 L 1283.99 1072.58 C 1275.05 1077.31 1266.65 1078.17 1263.82 1066.72 z" fill="rgb(253,224,119)" fill-opacity="0.85098" transform="translate(0,0)"></path>
<path d="M 1286.33 1064.57 C 1290.83 1064.21 1292.04 1063.75 1295.99 1065.49 L 1296.77 1067.06 C 1295.76 1069.14 1296.33 1068.6 1294.7 1069.99 C 1291.37 1070.67 1287.05 1071.38 1283.99 1072.58 L 1281.67 1071.21 L 1281.1 1068.97 C 1283.34 1065.53 1282.41 1066.67 1286.33 1064.57 z" fill="rgb(253,224,119)" fill-opacity="0.505882" transform="translate(0,0)"></path>
<path d="M 1212.3 1025.26 C 1219.91 1018.58 1228.7 1011.19 1237.74 1006.7 C 1280.85 985.303 1324.26 983.187 1360.27 946.002 C 1395.35 909.769 1396.54 866.53 1413.73 824.235 C 1454.38 724.19 1579.37 683.226 1679.91 690.659 C 1690.6 691.45 1724.13 693.662 1731.38 699.676 C 1733.04 703.674 1732.81 701.666 1732.13 705.921 C 1730.8 707.698 1729.57 708.35 1727.43 708.902 C 1704.04 714.942 1681.67 719.15 1659.17 728.591 C 1628.67 741.687 1600.95 760.478 1577.49 783.957 C 1528.44 832.727 1514.69 878.337 1496.8 942.393 C 1476.95 1013.46 1433.16 1075.8 1363.13 1105.07 C 1345.28 1112.46 1326.77 1118.14 1307.84 1122 C 1297.86 1124.02 1283.6 1125.97 1274.44 1128.36 C 1272.4 1124.02 1270.3 1119.72 1268.16 1115.43 C 1293.2 1112.48 1323.9 1105.94 1347.36 1097.13 C 1396.46 1078.42 1436.84 1042.12 1460.67 995.288 C 1476.26 964.885 1485.96 927.955 1495.89 895.343 C 1522.09 809.362 1581.28 743.115 1666.08 711.807 C 1668.32 708.421 1668.77 707.765 1670.23 704.033 C 1653.81 703.51 1636.24 703.019 1619.96 705.079 C 1568.67 711.567 1509.06 730.976 1471.28 767.195 C 1456.31 781.538 1440.42 799.923 1431.91 818.227 C 1407.21 871.368 1410.68 919.947 1362.35 962.083 C 1345.55 976.728 1338.2 980.493 1318.1 990.397 C 1292.76 1002.88 1234.9 1013.11 1221.92 1038.43 C 1218.77 1033.99 1215.57 1029.6 1212.3 1025.26 z" fill="rgb(82,32,57)" transform="translate(0,0)"></path>
<path d="M 1670.23 704.033 L 1685.23 704.477 C 1678.86 706.956 1672.48 709.399 1666.08 711.807 C 1668.32 708.421 1668.77 707.765 1670.23 704.033 z" fill="rgb(222,98,81)" transform="translate(0,0)"></path>
<path d="M 1244.34 1072.48 C 1249.78 1069.16 1257.4 1068.08 1263.82 1066.72 C 1266.65 1078.17 1275.05 1077.31 1283.99 1072.58 C 1287.05 1071.38 1291.37 1070.67 1294.7 1069.99 C 1300.62 1069.25 1304.3 1068.42 1310.19 1069.57 C 1288.86 1076.68 1273.7 1080.14 1251.47 1084.5 C 1249.14 1080.46 1246.76 1076.46 1244.34 1072.48 z" fill="rgb(253,224,119)" transform="translate(0,0)"></path>
<path d="M 1000.04 849.446 C 1009.28 783.402 1024.53 724.775 1080.33 681.55 C 1129.93 643.131 1180.84 660.018 1231.55 631.961 C 1267.07 612.308 1273.16 572.931 1289.95 541.307 C 1318.05 488.414 1377.76 463.773 1435.79 474.179 C 1452.94 477.254 1501.61 485.831 1511.91 498.223 C 1512.16 500.663 1511.2 505.843 1508.64 506.085 C 1492.13 507.645 1476.33 508.355 1460.21 512.992 C 1441.84 518.354 1424.77 527.456 1410.07 539.726 C 1363.13 579.14 1366.45 648.589 1325 698.717 C 1268.73 766.768 1182.27 744.688 1135.16 814.047 C 1120.66 835.382 1104.25 879.115 1091.77 905.401 C 1087.83 902.477 1083.86 899.603 1079.85 896.778 C 1058.67 881.859 1036.54 868.346 1013.59 856.326 C 1009.1 853.975 1004.58 851.681 1000.04 849.446 z M 1099.19 760.873 C 1095.94 765.216 1091.87 770.254 1089.34 774.947 C 1078.25 791.109 1070.83 809.187 1064.16 827.553 C 1061.07 837.174 1053.51 856.64 1059.95 865.282 C 1069.25 867.813 1076.35 836.846 1078.72 829.506 C 1102.01 776.339 1124.24 738.703 1181.58 718.121 C 1217.68 705.161 1255.08 693.298 1283.92 666.717 C 1291.42 659.87 1298.09 652.162 1303.79 643.753 C 1324.79 613 1338.3 567.405 1357.86 543.231 C 1363.68 535.995 1370.61 529.72 1378.39 524.636 C 1386.57 519.33 1398.48 513.388 1406.13 507.259 C 1407.69 506.008 1407.15 504.669 1406.92 503.276 C 1398.51 499.162 1382.83 507.752 1375.16 512.079 C 1316.33 545.265 1318.63 628.382 1264.44 665.338 C 1203.06 707.198 1149.92 698.695 1099.19 760.873 z" fill="rgb(233,114,81)" transform="translate(0,0)"></path>
<path d="M 1000.04 849.446 C 1009.28 783.402 1024.53 724.775 1080.33 681.55 C 1129.93 643.131 1180.84 660.018 1231.55 631.961 C 1267.07 612.308 1273.16 572.931 1289.95 541.307 C 1318.05 488.414 1377.76 463.773 1435.79 474.179 C 1452.94 477.254 1501.61 485.831 1511.91 498.223 C 1512.16 500.663 1511.2 505.843 1508.64 506.085 C 1492.13 507.645 1476.33 508.355 1460.21 512.992 C 1441.84 518.354 1424.77 527.456 1410.07 539.726 C 1363.13 579.14 1366.45 648.589 1325 698.717 C 1268.73 766.768 1182.27 744.688 1135.16 814.047 C 1120.66 835.382 1104.25 879.115 1091.77 905.401 C 1087.83 902.477 1083.86 899.603 1079.85 896.778 C 1081.8 893.647 1088.25 877.978 1090.02 873.892 C 1102.2 845.698 1109.61 821.89 1129.19 797.394 C 1182.33 730.918 1266.6 753.891 1318.94 683.735 C 1346.89 646.269 1349.37 605.065 1371.98 564.828 C 1393 527.406 1427.84 507.494 1468.29 496.108 C 1424.3 482.502 1395.34 479.628 1353.27 498.166 C 1282.13 529.513 1301.43 607.836 1238 644.374 C 1186.18 674.227 1122.73 657.413 1077.78 700.889 C 1039.11 736.538 1016.31 804.888 1013.59 856.326 C 1009.1 853.975 1004.58 851.681 1000.04 849.446 z" fill="rgb(82,32,57)" transform="translate(0,0)"></path>
<path d="M 1099.19 760.873 C 1149.92 698.695 1203.06 707.198 1264.44 665.338 C 1318.63 628.382 1316.33 545.265 1375.16 512.079 C 1382.83 507.752 1398.51 499.162 1406.92 503.276 C 1407.15 504.669 1407.69 506.008 1406.13 507.259 C 1398.48 513.388 1386.57 519.33 1378.39 524.636 C 1370.61 529.72 1363.68 535.995 1357.86 543.231 C 1338.3 567.405 1324.79 613 1303.79 643.753 C 1298.09 652.162 1291.42 659.87 1283.92 666.717 C 1255.08 693.298 1217.68 705.161 1181.58 718.121 C 1124.24 738.703 1102.01 776.339 1078.72 829.506 L 1076.35 828.27 C 1078.79 817.05 1083.28 811.416 1086.27 800.827 C 1091.16 796.403 1109.59 767.151 1107.6 761.794 C 1103.53 760.363 1103.29 760.128 1099.19 760.873 z" fill="rgb(254,227,122)" fill-opacity="0.976471" transform="translate(0,0)"></path>
<path d="M 1064.16 827.553 C 1070.83 809.187 1078.25 791.109 1089.34 774.947 C 1089.65 782.803 1090.47 789.741 1086.81 796.725 C 1086.12 798.055 1086.23 799.371 1086.27 800.827 C 1083.28 811.416 1078.79 817.05 1076.35 828.27 C 1072.94 831.319 1071.26 833.131 1067.14 833.567 C 1064.48 831.321 1065.27 831.641 1064.16 827.553 z" fill="rgb(254,227,122)" fill-opacity="0.788235" transform="translate(0,0)"></path>
<path d="M 1078.72 829.506 C 1076.35 836.846 1069.25 867.813 1059.95 865.282 C 1053.51 856.64 1061.07 837.174 1064.16 827.553 C 1065.27 831.641 1064.48 831.321 1067.14 833.567 C 1071.26 833.131 1072.94 831.319 1076.35 828.27 L 1078.72 829.506 z" fill="rgb(253,224,119)" fill-opacity="0.984314" transform="translate(0,0)"></path>
<path d="M 1099.19 760.873 C 1103.29 760.128 1103.53 760.363 1107.6 761.794 C 1109.59 767.151 1091.16 796.403 1086.27 800.827 C 1086.23 799.371 1086.12 798.055 1086.81 796.725 C 1090.47 789.741 1089.65 782.803 1089.34 774.947 C 1091.87 770.254 1095.94 765.216 1099.19 760.873 z" fill="url(#Gradient1)" transform="translate(0,0)"></path>
<path d="M 1198.64 33.4166 C 1223.52 31.7577 1248.46 35.4775 1271.77 44.323 C 1345.04 72.237 1393.63 145.772 1387.78 223.879 C 1386.12 246.001 1380.8 262.922 1372.78 283.279 C 1390.16 299.948 1398.54 318.711 1407.76 340.239 C 1444.05 338.955 1471.76 342.469 1504.54 359.949 C 1539.01 378.333 1568.75 413.019 1579.79 450.686 C 1630.1 442.002 1668.4 442.53 1712.53 472.227 C 1755.96 501.447 1775.75 535.932 1787.09 585.888 C 1837.13 591.238 1876.12 610.094 1902.94 654.679 C 1926.25 693.428 1925.42 732.938 1914.19 775.576 C 1941.64 783.69 1965.04 796.388 1983.48 818.961 C 2005.92 846.026 2016.33 881.08 2012.3 916.003 C 2007.89 957.815 1989.07 979.238 1958.07 1004.2 C 1973.4 1027.5 1981.16 1054.96 1980.29 1082.83 C 1979.45 1120.25 1963.71 1155.79 1936.58 1181.57 C 1901.05 1215.48 1866.49 1221.24 1819.78 1219.97 L 1819.7 1221.33 C 1815.95 1287.09 1785.24 1340.27 1722.81 1366.01 C 1691.2 1379.04 1667.39 1377.72 1634.2 1375.63 C 1616.83 1406.51 1608.79 1420.22 1575.25 1438.67 C 1548.97 1453.12 1502.41 1454.82 1474.7 1445.72 C 1472.23 1450.58 1469.62 1455.38 1466.89 1460.09 C 1441.98 1502.9 1410.38 1538.09 1368.92 1565.39 C 1361.73 1570.13 1345.02 1582 1336.69 1576.38 C 1334.24 1572.52 1333.44 1566.13 1337.85 1564.33 C 1363.58 1553.84 1382.55 1538.68 1402.98 1519.38 C 1418.84 1504.43 1432.81 1487.61 1444.6 1469.28 C 1450.14 1460.68 1460.76 1435.85 1467.17 1431.05 C 1471.1 1428.11 1502.05 1436.39 1511.77 1436.15 C 1529.59 1435.71 1539.25 1435.79 1556.51 1429.19 C 1580.01 1420.39 1599.84 1403.89 1612.77 1382.39 C 1616.77 1375.68 1621.12 1364.66 1626.62 1359.71 C 1629.1 1357.48 1644.65 1360.27 1649.01 1360.67 C 1659.23 1361.6 1668.83 1361.53 1679.06 1360.44 C 1700.09 1358.2 1720.32 1351.12 1738.18 1339.78 C 1775.27 1316.48 1796.33 1279.97 1803.13 1237.18 C 1803.98 1231.84 1801.9 1203.4 1808.75 1203.23 C 1829.85 1202.68 1850.33 1206.67 1871.27 1200.39 C 1945.13 1178.24 1979.79 1108.03 1956.46 1035.26 C 1951.82 1024.27 1940.96 1008.46 1938.99 1000.69 C 1940.15 991.915 1992.69 969.146 1996.22 909.032 C 1999.48 858.845 1969.34 812.494 1922.14 795.112 C 1915.8 792.772 1897.17 789.793 1894.67 786.975 C 1893.27 778.794 1902.74 756.03 1904.64 742.549 C 1909.04 709.599 1900.12 676.252 1879.84 649.909 C 1860.86 625.644 1833.28 609.604 1802.8 605.105 C 1796.83 604.197 1772.74 605.021 1772.09 598.98 C 1763.31 517.361 1689.88 453.265 1607.17 462.107 C 1572.56 465.807 1570.45 479.198 1558.99 441.518 C 1537.2 392.614 1487.16 360.534 1434.32 356.524 C 1429.51 356.159 1400.94 356.921 1398.24 355.538 C 1393.68 350.501 1387.3 336.028 1385.25 329.165 C 1380.72 313.95 1359.04 294.9 1355.34 283.002 C 1354.54 280.45 1363.43 260.108 1364.35 257.397 C 1389.02 184.273 1351.21 100.437 1282.51 66.9133 C 1201.56 26.3369 1110.41 58.0599 1066 134.941 C 1063.08 140.075 1060.65 148.803 1053.59 149.047 C 1038.29 149.577 1023.16 146.938 1007.79 148.328 C 964.839 152.541 927.591 172.9 899.259 205.249 C 862.288 246.746 851.303 305.288 870.716 357.365 C 875.109 369.353 886.292 387.232 886.974 397.649 C 884.158 402.649 838.771 415.155 827.199 420.45 C 791.279 436.621 758.93 459.767 732.03 488.544 C 713.051 509.303 697.614 533.042 686.337 558.81 C 676.166 581.933 669.502 603.819 665.631 628.75 C 664.419 636.555 662.929 645.166 656.571 650.433 C 629.37 656.478 671.587 552.588 677.279 541.472 C 706.534 483.565 754.678 437.38 813.75 410.556 C 830.582 402.845 850.526 396.283 868.106 390.564 C 830.295 314.503 841.07 234.003 906.924 175.401 C 947.766 139.058 994.932 129.3 1048.59 133.314 C 1086.11 72.3746 1125.89 40.8667 1198.64 33.4166 z" fill="rgb(82,32,57)" transform="translate(0,0)"></path>
<path d="M 1571.93 1498.47 C 1586.59 1498 1655.5 1501.05 1658.47 1516.5 C 1655.01 1525.68 1632.08 1525.77 1619.49 1529.64 C 1505.91 1564.55 1550 1651.63 1490.94 1724 C 1461.24 1760.38 1414.02 1772.73 1369.25 1776.63 C 1347.02 1778.68 1310.14 1777.9 1288.04 1774.3 C 1278.01 1772.66 1293.54 1738.21 1295.43 1733.27 C 1316.57 1678.06 1379.19 1680.96 1412.47 1645.84 C 1433.68 1623.44 1436.59 1567.18 1463.13 1543.77 C 1497.53 1508.04 1524.24 1501.83 1571.93 1498.47 z M 1300.25 1761.58 C 1315.81 1762.38 1334.54 1763.54 1350.08 1762.58 C 1435.51 1758.3 1489.98 1735.66 1510.11 1648.56 C 1514.28 1630.53 1520.68 1610.3 1526.54 1592.62 C 1545.81 1546.89 1576.35 1526.37 1622.49 1514.68 C 1605.26 1512.96 1585.35 1510.84 1568.2 1512.58 C 1527.66 1516.37 1500.26 1523.75 1473.27 1555.48 C 1447.9 1585.29 1446.39 1626.59 1423.04 1656.17 C 1410.58 1671.95 1384.28 1682.32 1365.47 1689.51 C 1332 1702.31 1311.25 1727.24 1300.25 1761.58 z" fill="rgb(82,32,57)" transform="translate(0,0)"></path>
<path d="M 1568.2 1512.58 C 1585.35 1510.84 1605.26 1512.96 1622.49 1514.68 C 1576.35 1526.37 1545.81 1546.89 1526.54 1592.62 C 1520.68 1610.3 1514.28 1630.53 1510.11 1648.56 C 1489.98 1735.66 1435.51 1758.3 1350.08 1762.58 C 1334.54 1763.54 1315.81 1762.38 1300.25 1761.58 C 1311.25 1727.24 1332 1702.31 1365.47 1689.51 C 1384.28 1682.32 1410.58 1671.95 1423.04 1656.17 C 1446.39 1626.59 1447.9 1585.29 1473.27 1555.48 C 1500.26 1523.75 1527.66 1516.37 1568.2 1512.58 z M 1486.32 1626.63 C 1489.16 1617.67 1492.59 1608.24 1495.67 1599.29 C 1492.63 1584.02 1500.75 1586.61 1499.31 1576.2 C 1497.01 1573.36 1498.44 1574.07 1495.39 1573.19 C 1489.09 1577.26 1488.51 1591.49 1480.5 1598.82 C 1477.59 1606.95 1474.83 1615.14 1472.22 1623.38 C 1459.27 1659.23 1445.66 1687.01 1409.16 1703.87 C 1402.01 1707.17 1379.17 1714.09 1376.36 1718.4 C 1376.22 1722.52 1375.62 1720.82 1377.65 1723.87 C 1383.74 1727.2 1391.12 1725.32 1397.48 1723.44 C 1448.75 1708.37 1469.58 1674.04 1486.32 1626.63 z" fill="rgb(233,114,81)" transform="translate(0,0)"></path>
<path d="M 1486.32 1626.63 C 1469.58 1674.04 1448.75 1708.37 1397.48 1723.44 C 1391.12 1725.32 1383.74 1727.2 1377.65 1723.87 C 1375.62 1720.82 1376.22 1722.52 1376.36 1718.4 C 1379.17 1714.09 1402.01 1707.17 1409.16 1703.87 C 1445.66 1687.01 1459.27 1659.23 1472.22 1623.38 C 1472.38 1626.85 1472.06 1628.39 1474.24 1631.05 C 1479.6 1632.36 1481.59 1628.08 1486.32 1626.63 z" fill="rgb(254,227,122)" fill-opacity="0.898039" transform="translate(0,0)"></path>
<path d="M 1480.5 1598.82 C 1489.2 1574.39 1503.17 1546.06 1526.74 1532.7 C 1531.98 1529.72 1539.14 1528.1 1542.84 1533.96 C 1542.02 1540.26 1528.86 1545.44 1524.2 1550.52 C 1511.38 1564.51 1502.71 1581.84 1495.67 1599.29 C 1492.63 1584.02 1500.75 1586.61 1499.31 1576.2 C 1497.01 1573.36 1498.44 1574.07 1495.39 1573.19 C 1489.09 1577.26 1488.51 1591.49 1480.5 1598.82 z" fill="rgb(253,224,119)" transform="translate(0,0)"></path>
<path d="M 1480.5 1598.82 C 1488.51 1591.49 1489.09 1577.26 1495.39 1573.19 C 1498.44 1574.07 1497.01 1573.36 1499.31 1576.2 C 1500.75 1586.61 1492.63 1584.02 1495.67 1599.29 C 1492.59 1608.24 1489.16 1617.67 1486.32 1626.63 C 1481.59 1628.08 1479.6 1632.36 1474.24 1631.05 C 1472.06 1628.39 1472.38 1626.85 1472.22 1623.38 C 1474.83 1615.14 1477.59 1606.95 1480.5 1598.82 z" fill="rgb(254,227,122)" fill-opacity="0.854902" transform="translate(0,0)"></path>
<path d="M 572.181 288.889 C 590.803 292.561 630.774 337.639 642.531 352.317 C 687.389 408.318 681.29 499.959 620.308 541.994 C 610.448 548.79 598.751 554.87 588.849 562.108 C 546.19 593.293 545.488 657.461 537.18 705.017 C 535.516 714.988 536.127 719.342 528.415 724.904 C 527.795 724.814 525.111 724.428 524.475 724.195 C 509.498 718.713 492.681 696.173 484.937 683.428 C 465.113 650.8 456.686 604.458 465.667 567.269 C 473.618 534.345 496.164 507.383 525.164 490.673 C 536.328 484.093 549.049 479.029 560.034 472.274 C 619.975 435.411 600.449 352.763 567.696 304.146 C 562.715 296.752 565.013 292.544 572.181 288.889 z M 522.243 706.994 C 531.08 654.982 533.382 580.664 582.333 549.272 C 619.369 525.522 646.466 510.419 654.821 462.932 C 661.049 427.53 656.007 394.899 634.169 365.488 C 626.546 355.126 608.046 331.18 596.323 325.48 C 610.228 361.824 621.673 403.305 605.347 441.179 C 580.025 499.925 522.315 487.944 490.65 544.211 C 483.853 556.18 479.423 569.345 477.603 582.988 C 474.805 604.275 478.247 631.386 485.949 651.423 C 493.824 672.385 506.215 691.357 522.243 706.994 z" fill="rgb(82,32,57)" transform="translate(0,0)"></path>
<path d="M 596.323 325.48 C 608.046 331.18 626.546 355.126 634.169 365.488 C 656.007 394.899 661.049 427.53 654.821 462.932 C 646.466 510.419 619.369 525.522 582.333 549.272 C 533.382 580.664 531.08 654.982 522.243 706.994 C 506.215 691.357 493.824 672.385 485.949 651.423 C 478.247 631.386 474.805 604.275 477.603 582.988 C 479.423 569.345 483.853 556.18 490.65 544.211 C 522.315 487.944 580.025 499.925 605.347 441.179 C 621.673 403.305 610.228 361.824 596.323 325.48 z M 521.791 544.131 C 504.614 565.699 501.255 589.141 505.422 616.153 C 506.243 621.474 506.796 626.673 509.571 631.384 C 512.82 633.597 511.091 633.096 514.896 633.097 C 524.108 628.512 518.438 609.893 518.534 600.597 C 518.681 586.249 520.25 578.118 525.82 564.996 C 552.096 519.175 616.047 517.928 634.573 462.353 C 642.87 437.466 641.428 406.963 630.717 382.425 C 629.226 379.011 624.294 373.201 620.56 371.964 L 619.368 372.711 C 619.556 382.576 625.583 399.763 626.085 412.036 C 629.674 499.841 566.815 494.027 521.791 544.131 z" fill="rgb(233,114,81)" transform="translate(0,0)"></path>
<path d="M 521.791 544.131 C 566.815 494.027 629.674 499.841 626.085 412.036 C 625.583 399.763 619.556 382.576 619.368 372.711 L 620.56 371.964 C 624.294 373.201 629.226 379.011 630.717 382.425 C 641.428 406.963 642.87 437.466 634.573 462.353 C 616.047 517.928 552.096 519.175 525.82 564.996 C 519.683 565.121 520.488 568.788 514.819 567.127 C 512.25 559.325 521.756 553.688 521.791 544.131 z" fill="rgb(253,224,119)" fill-opacity="0.976471" transform="translate(0,0)"></path>
<path d="M 521.791 544.131 C 521.756 553.688 512.25 559.325 514.819 567.127 C 520.488 568.788 519.683 565.121 525.82 564.996 C 520.25 578.118 518.681 586.249 518.534 600.597 C 518.438 609.893 524.108 628.512 514.896 633.097 C 511.091 633.096 512.82 633.597 509.571 631.384 C 506.796 626.673 506.243 621.474 505.422 616.153 C 501.255 589.141 504.614 565.699 521.791 544.131 z" fill="rgb(254,227,122)" fill-opacity="0.980392" transform="translate(0,0)"></path>
<path d="M 253.188 615.233 C 254.1 615.196 259.114 615.048 259.513 615.238 C 279.325 624.724 315.503 664.429 327.07 680.505 C 348.834 710.755 361.091 743.217 354.646 779.389 C 348.096 816.146 326.987 846.748 298.026 869.384 C 289.111 876.352 278.05 883.098 268.763 889.742 C 227.909 918.972 216.925 962.381 211.686 1009.8 C 210.289 1022.44 209.264 1039.09 207.219 1051.26 C 180.504 1060.02 145.982 987.435 141.515 965.903 C 127.139 904.984 153.382 843.488 212.855 818.544 C 287.271 787.333 296.326 726.101 264.929 656.57 C 260.283 646.281 245.676 624.465 253.188 615.233 z M 194.633 1028.69 C 201.156 973.152 207.591 915.319 256.191 879.724 C 267.87 871.17 280.58 863.31 291.673 854.669 C 350.048 809.189 356.574 737.094 308.021 681.579 C 300.724 673.236 289.548 657.878 280.05 652.383 C 294.822 691.047 306.313 730.513 288.303 771.446 C 258.028 840.254 170.749 822.915 154.493 910.591 C 150.045 934.582 153.301 955.431 161.218 978.436 C 165.27 990.211 183.7 1024.52 193.665 1029.35 L 194.633 1028.69 z" fill="rgb(82,32,57)" transform="translate(0,0)"></path>
<path d="M 280.05 652.383 C 289.548 657.878 300.724 673.236 308.021 681.579 C 356.574 737.094 350.048 809.189 291.673 854.669 C 280.58 863.31 267.87 871.17 256.191 879.724 C 207.591 915.319 201.156 973.152 194.633 1028.69 L 193.665 1029.35 C 183.7 1024.52 165.27 990.211 161.218 978.436 C 153.301 955.431 150.045 934.582 154.493 910.591 C 170.749 822.915 258.028 840.254 288.303 771.446 C 306.313 730.513 294.822 691.047 280.05 652.383 z M 184.482 974.81 C 188.687 969.047 189.528 961.387 190.746 954.398 C 194.443 933.186 199.461 912.907 211.143 894.444 C 234.644 857.302 282.228 848.187 306.346 811.563 C 320.219 790.794 327.193 767.591 324.457 742.376 C 323.554 734.058 320.288 731.012 312.729 729.082 C 311.12 737.913 311.936 748.949 311.019 758.246 C 308.321 785.729 294.074 810.771 271.828 827.133 C 260.038 835.807 246.86 842.001 234.592 849.803 C 206.501 867.667 180.215 893.846 175.815 928.36 C 174.321 940.075 173.159 951.296 175.01 963.062 C 175.933 968.928 175.978 978.066 184.482 974.81 z" fill="rgb(233,114,81)" transform="translate(0,0)"></path>
<path d="M 312.729 729.082 C 320.288 731.012 323.554 734.058 324.457 742.376 C 327.193 767.591 320.219 790.794 306.346 811.563 C 282.228 848.187 234.644 857.302 211.143 894.444 C 199.461 912.907 194.443 933.186 190.746 954.398 C 189.528 961.387 188.687 969.047 184.482 974.81 C 175.978 978.066 175.933 968.928 175.01 963.062 C 173.159 951.296 174.321 940.075 175.815 928.36 C 180.215 893.846 206.501 867.667 234.592 849.803 C 246.86 842.001 260.038 835.807 271.828 827.133 C 294.074 810.771 308.321 785.729 311.019 758.246 C 311.936 748.949 311.12 737.913 312.729 729.082 z" fill="rgb(253,224,119)" fill-opacity="0.984314" transform="translate(0,0)"></path>
<path d="M 626.728 741.398 C 640.903 739.274 641.606 754.761 637.324 755.645 C 614.509 760.354 588.187 765.191 565.67 771.099 C 504.269 787.057 446.755 815.333 396.621 854.209 C 393.184 856.288 392.366 856.52 388.69 855.722 C 385.754 853.651 385.491 853.776 383.992 850.402 C 383.396 838.045 411.674 822.676 421.63 816.642 C 484.186 777.912 553.967 752.311 626.728 741.398 z" fill="rgb(82,32,57)" transform="translate(0,0)"></path>
<path d="M 156.971 1084.83 C 160.865 1085.3 162.235 1085.32 165.227 1087.9 C 166.147 1089.6 166.727 1090.73 166.739 1092.72 C 166.765 1096.81 144.776 1143.21 141.341 1151.96 C 128.08 1185.73 117.828 1221.6 110.435 1257.12 C 107.204 1272.65 107.603 1303.9 97.0933 1314.6 C 93.4171 1314.34 92.7395 1314.49 89.4749 1312.6 C 86.0055 1308.13 86.5465 1302.21 87.2866 1296.73 C 96.4357 1229 115.921 1162.47 146.267 1101.16 C 149.244 1095.14 151.743 1089.11 156.971 1084.83 z" fill="rgb(82,32,57)" transform="translate(0,0)"></path>
<path d="M 1201.45 1820.86 C 1205.87 1821.73 1206.5 1822.2 1209.45 1825.24 C 1209.94 1826.76 1210.49 1827.67 1210.17 1829.29 C 1206.61 1847.53 1072.21 1943.27 1046.31 1960.22 C 1041.07 1958.47 1038.66 1957.58 1037.44 1951.55 C 1038.01 1947.28 1041.32 1943.37 1044.88 1941.18 C 1072.81 1923.97 1098.24 1903.68 1124.78 1884.51 C 1151.65 1865.11 1175.48 1840.93 1201.45 1820.86 z" fill="rgb(82,32,57)" transform="translate(0,0)"></path>
<path d="M 1718.24 1075.65 L 1719.34 1076.64 C 1715.7 1083 1705.4 1089.84 1699.25 1095.32 C 1698.73 1112.23 1689.14 1112.1 1684.18 1125.56 C 1685.92 1135.13 1679.7 1146.18 1674.82 1154.84 L 1674.87 1155.39 L 1674.61 1155.1 C 1670.9 1132.76 1676.31 1141.75 1679.27 1125.37 C 1682.88 1105.36 1702.85 1087.57 1718.24 1075.65 z" fill="rgb(254,254,240)" fill-opacity="0.0666667" transform="translate(0,0)"></path>
<metadata><recraft-signature>{"signed_by": "recraft", "signature_b64": "BJ4eDCzXKmyg26+/W3lWU47UOIjyIktDtkbt5LA8IprWDXMKDsOZSGSbOrAPdeoWTzJNI+0HXHXzIHWLY68KCQ==", "signing_algo": "Ed25519", "generation_timestamp": 1782789505, "identifier": "6109b8a0-cc6b-4a6e-a913-c3582c638e96"}</recraft-signature></metadata></svg>