<svg xmlns="http://www.w3.org/2000/svg" height="1024" preserveAspectRatio="none" style="display: block;" version="1.1" viewBox="0 0 2048 2048" width="1024">
<path d="M 944.952 88.4476 C 966.82 87.9323 988.698 87.9827 1010.56 88.599 C 1228.98 94.3485 1438.42 176.74 1602.22 321.351 C 1624.57 341.037 1650.39 367.122 1670.81 388.766 C 1771.48 496.698 1844.9 627.122 1884.97 769.175 C 1900.67 826.298 1910.34 890.018 1915.99 948.994 C 1918.29 959.702 1914.57 1009.2 1918.35 1016.12 C 1959.11 1090.66 1987.94 1153.28 1984.97 1242.5 C 1982.74 1307.64 1954.9 1369.27 1907.5 1414 C 1882.53 1437.21 1826.57 1468.16 1792.27 1467 C 1776.72 1504.16 1739.68 1556 1714.76 1588.27 C 1594.47 1741.14 1429.04 1852.21 1241.99 1905.67 C 1189.93 1920.58 1145.71 1928.91 1092.25 1935.75 C 1085.49 1936.31 1078.57 1937.15 1071.81 1937.89 C 1001.52 1945.56 934.839 1944.32 864.609 1935.15 C 676.591 1910.9 500.917 1828.28 362.339 1698.91 C 181.815 1533.68 73.5961 1304.02 61.0914 1059.61 C 49.9002 808.643 140.101 563.721 311.393 379.963 C 476.086 203.34 703.671 98.6225 944.952 88.4476 z M 1743.8 1468.52 C 1730.81 1466.38 1718.27 1464.42 1705.42 1461.46 C 1699.99 1472.25 1693.93 1482.71 1687.27 1492.78 C 1673.82 1512.81 1613.79 1593.08 1594.73 1599.87 C 1591.09 1601.17 1587.5 1600.78 1584.08 1599.07 C 1580.65 1597.35 1577.95 1594.36 1576.86 1590.66 C 1575.54 1586.2 1576.62 1581.28 1578.89 1577.33 C 1586.3 1564.46 1603.3 1551.03 1613.28 1539.11 C 1636.71 1511.24 1658.18 1481.77 1677.54 1450.93 C 1585.88 1401.74 1542.61 1319.42 1545.08 1216.49 C 1551.97 1131.67 1580.7 1077.5 1623.98 1005.94 C 1668.57 932.217 1707.29 852.984 1731.59 770.145 C 1738.09 747.712 1740.36 725.967 1748.67 703.397 C 1704.88 612.079 1661.5 537.918 1591.35 463.675 C 1498.75 365.664 1391.15 288.287 1263.35 243.233 C 1160.53 206.384 1051.3 190.806 942.276 197.446 C 926.027 198.527 909.139 200.905 893.134 201.406 C 880.694 201.796 877.376 176.565 891.013 173.222 C 910.663 168.405 934.567 167.287 954.651 166.307 C 1087.74 160.726 1220.23 187.038 1341.09 243.05 C 1535.08 334.782 1689.32 493.611 1775.32 690.202 C 1782.71 706.923 1789.92 717.827 1796.43 735.921 C 1804.36 757.951 1807.58 777.977 1813.44 799.405 C 1823.66 836.787 1847.93 902.209 1869.85 933.808 C 1867.81 906.059 1861.26 869.191 1855.85 842.032 C 1819.3 654.428 1721.51 484.262 1577.82 358.223 C 1399.17 203.984 1184.11 123.036 947.194 132.432 C 742.53 142.076 547.458 222.029 394.896 358.797 C 379.16 373.06 364.615 388.629 349.994 404.011 C 182.235 580.495 90.9657 814.262 104.574 1058.67 C 117.081 1295.81 223.97 1518.09 401.401 1675.92 C 575.341 1831.35 804.178 1910.84 1037.02 1896.71 C 1274.41 1882.48 1496.15 1773.54 1652.49 1594.34 C 1679.58 1563.66 1723.89 1504.75 1743.8 1468.52 z" fill="rgb(41,55,79)" transform="translate(0,0)"></path>
<path d="M 777.83 607.482 C 781.825 609.649 790.867 619.053 794.211 622.748 C 890.307 729.542 954.579 879.338 947.56 1024.49 C 942.371 1131.81 882.509 1255.19 772.317 1286.76 C 750.5 1293.01 731.767 1293.15 709.372 1291.85 C 628.784 1281.66 570.453 1215.99 547.939 1141.06 C 512.352 1022.62 565.589 905.76 634.568 811.413 C 657.425 780.149 683.508 750.39 706.499 719.213 C 732.782 683.63 756.614 646.3 777.83 607.482 z M 703.233 1255.7 C 743.587 1261.8 777.523 1255.34 811.253 1231.05 C 866.741 1191.11 901.855 1118.05 910.656 1050.88 C 928.094 917.768 874.905 779.403 793.471 675.705 C 790.606 672.047 787.617 668.164 784.496 664.727 C 766.208 692.733 746.967 722.391 726.343 748.618 C 644.634 852.524 547.505 971.091 576.802 1113.13 C 590.654 1180.28 634.393 1239.32 703.233 1255.7 z" fill="rgb(41,55,79)" transform="translate(0,0)"></path>
<path d="M 775.026 937.271 C 791.849 935.674 811.639 941.446 824.724 952.315 C 881.547 999.516 894.191 1097.63 848.003 1156.34 C 834.221 1173.86 818.585 1184.61 796.299 1187.47 C 673.731 1193.01 657.229 961.642 775.026 937.271 z" fill="rgb(41,55,79)" transform="translate(0,0)"></path>
<path d="M 777.721 969.243 C 809.601 968.85 832.87 1006.96 839.911 1034.14 C 847.846 1064.77 846.018 1099.36 829.698 1127.05 C 820.288 1143.02 811.607 1150.43 793.542 1155.32 C 774.502 1157.24 758.218 1145.98 747.522 1131.09 C 717.373 1089.12 718.801 1023.11 753.178 983.959 C 759.76 976.463 767.94 971.367 777.721 969.243 z" fill="rgb(41,123,146)" transform="translate(0,0)"></path>
<path d="M 1050.91 538.944 C 1094.52 565.897 1139.48 597.066 1184 621.16 C 1274.98 669.394 1364.75 707.539 1433.78 787.105 C 1512.73 878.093 1541.78 1025.98 1441.25 1113.81 C 1391.29 1157.49 1324.08 1165.77 1263 1142.91 C 1180.17 1111.9 1114.15 1035.69 1077.57 956.954 C 1022.16 837.698 1006 663.696 1050.91 538.944 z M 1422.58 1083.92 C 1509.41 997.1 1468.78 868.731 1390.92 791.141 C 1316.66 717.127 1215.73 680.911 1126.69 628.785 C 1107.87 617.768 1090.29 605.63 1072.07 594.013 C 1066.85 607.512 1063.26 636.877 1062.12 651.872 C 1054.89 748.13 1065.31 847.386 1106.14 935.813 C 1139.69 1008.47 1192.12 1077.05 1268.4 1107.87 C 1318.18 1127.98 1383.43 1124.01 1422.58 1083.92 z" fill="rgb(41,55,79)" transform="translate(0,0)"></path>
<path d="M 1220.33 833.234 C 1242.1 830.88 1264.07 839.269 1282 851.446 C 1342.62 892.613 1379.94 988.639 1335.18 1053.71 C 1323.99 1069.97 1311.37 1076.41 1292.43 1079.83 C 1271.55 1080.79 1255.21 1078.06 1237.04 1066.75 C 1174.2 1027.67 1131.43 933.92 1172.95 865.574 C 1184.15 847.137 1199.66 837.877 1220.33 833.234 z" fill="rgb(41,55,79)" transform="translate(0,0)"></path>
<path d="M 1220.65 866.081 C 1308.58 861.713 1358.7 1022.46 1290.38 1048.24 C 1280.95 1049.85 1270.18 1048.29 1261.57 1043.61 C 1211.4 1016.36 1180.05 954.979 1192.28 898.485 C 1195.85 882.008 1204.57 871.512 1220.65 866.081 z" fill="rgb(41,123,146)" transform="translate(0,0)"></path>
<path d="M 1149.78 1266.43 C 1195.82 1264.4 1241.73 1272.84 1284.04 1291.11 C 1365.68 1326.09 1438.93 1392.04 1472.3 1475.27 C 1453.68 1467.3 1437.97 1459.59 1418.65 1452.54 C 1294.77 1407.38 1159.93 1419.56 1041.36 1475.27 C 1029.85 1479.94 1007.57 1493.35 996.897 1500.2 C 933.715 1540.7 887.654 1588.76 850.576 1653.78 C 848.851 1645.69 848.52 1638.14 847.749 1630.02 C 832.642 1470.88 930.313 1314.28 1088.56 1274.73 C 1109.42 1269.52 1128.08 1267.94 1149.78 1266.43 z M 1366.16 1403.36 C 1374.22 1405.22 1384.6 1408.44 1392.76 1410.71 C 1387.02 1401.45 1378.74 1393.8 1370.97 1386.19 C 1366.01 1391.5 1364.5 1396.3 1366.16 1403.36 z" fill="rgb(41,55,79)" transform="translate(0,0)"></path>
<path d="M 879.101 1559.24 C 880.414 1550.27 882.042 1541.35 883.982 1532.49 C 932.222 1313.11 1170.14 1225.76 1348.74 1365.59 C 1354.94 1370.44 1366.92 1379.76 1370.97 1386.19 C 1366.01 1391.5 1364.5 1396.3 1366.16 1403.36 C 1363.21 1403.47 1355.92 1401.79 1352.77 1401.2 C 1210.92 1374.53 1057.15 1412.92 942.48 1500.22 C 919.653 1517.6 899.203 1538.12 879.101 1559.24 z" fill="rgb(248,213,136)" transform="translate(0,0)"></path>
<path d="M 409.049 399.034 C 420.759 399.601 430.406 413.715 424.401 419.78 C 337.283 507.774 262.544 611.471 218.622 728.049 C 141.896 931.187 150.13 1156.65 241.466 1353.65 C 343.606 1580.02 543.152 1747.65 783.749 1809.2 C 819.93 1818.17 858.625 1823.93 895.59 1828.8 C 904.834 1830.01 913.54 1830.81 922.614 1831.54 C 932.954 1832.37 958.314 1830.83 966.695 1834.32 C 970.248 1835.82 972.985 1838.77 974.207 1842.42 C 977.471 1852.16 972.237 1859.98 962.659 1862.45 C 884.478 1864.47 773.732 1841.48 700.499 1815.08 C 487.271 1738.44 313.596 1579.63 218.23 1374.09 C 122.531 1172.91 110.928 941.889 185.988 732.13 C 226.385 623.426 287.836 523.763 366.818 438.85 C 375.832 429.107 397.607 404.371 409.049 399.034 z" fill="rgb(41,55,79)" transform="translate(0,0)"></path>
<path d="M 1012.09 360.091 C 1025.48 360.405 1044.84 377.992 1056.16 385.253 C 1072.48 395.714 1088.49 406.825 1105.18 416.784 C 1137.3 436.263 1170.74 453.451 1205.28 468.218 C 1260.6 491.746 1325.46 510.476 1385.56 516.331 C 1399.58 517.709 1413.63 518.757 1427.7 519.475 C 1441.67 520.101 1477.01 514.644 1467.15 541.233 C 1463.6 550.802 1441.84 557.424 1432.25 561.232 C 1349.36 591.353 1265.31 596.14 1181.28 565.911 C 1113.2 541.415 1048.21 488.17 1016.24 422.403 C 1010.61 410.832 998.26 380.932 1003.27 367.416 C 1004.75 363.42 1008.39 361.754 1012.09 360.091 z" fill="rgb(41,55,79)" transform="translate(0,0)"></path>
<path d="M 1027.66 394.274 C 1036.35 396.35 1086.99 432.729 1100.48 439.922 C 1137.62 459.731 1174.79 481.359 1214.71 496.18 C 1255.85 511.455 1299.76 525.867 1342.95 534.067 C 1355.13 536.381 1367.08 537.127 1379.15 538.434 C 1387.74 539.364 1412.51 540.017 1419.23 542.69 C 1416.97 544.706 1406.85 546.943 1403.21 547.921 C 1292.36 582.486 1180.61 562.739 1091.67 485.588 C 1061.41 459.34 1044.88 429.486 1027.66 394.274 z" fill="rgb(41,123,146)" transform="translate(0,0)"></path>
<path d="M 731.923 436.048 C 748.912 435.562 753.456 447.058 755.041 462.52 C 762.382 534.099 736.785 598.886 692.924 654.465 C 675.804 675.754 655.803 694.556 633.499 710.329 C 570.679 755.375 517.312 766.148 443.245 774.839 L 442.213 774.9 C 433.841 775.335 426.111 776.394 420.86 767.649 C 418.131 763.103 420.828 752.972 424.95 750.069 C 436.216 742.133 448.498 735.364 460.246 728.042 C 480.523 715.243 500.28 701.641 519.472 687.268 C 577.066 643.32 638.568 578.86 678.397 518.263 C 688.591 502.595 698.343 486.644 707.64 470.428 C 713.574 460.11 721.678 440.99 731.923 436.048 z" fill="rgb(41,55,79)" transform="translate(0,0)"></path>
<path d="M 733.52 468.675 C 733.659 469.228 733.798 469.781 733.937 470.333 C 739.106 524.211 713.053 591.605 681.981 633.381 C 628.907 704.738 550.888 739.682 465.275 751.313 L 464.77 750.837 C 465.121 748.537 478.705 741.183 481.637 739.321 C 498.478 728.626 514.582 717.188 530.423 705.084 C 616.887 639.014 680.213 563.095 733.52 468.675 z" fill="rgb(41,123,146)" transform="translate(0,0)"></path>
<path d="M 1767.33 787.167 C 1770.9 792.985 1781.81 831.733 1785.04 841.174 C 1792.93 864.03 1801.8 886.536 1811.62 908.629 C 1824.03 936.774 1842.74 972.479 1858.36 998.926 C 1901.25 1071.09 1945.6 1143.18 1945.05 1230.1 C 1944.39 1335.2 1874.08 1429.56 1762.93 1427.79 C 1723.69 1424.71 1693.61 1415.12 1661.9 1390.73 C 1619.75 1357.85 1592.44 1309.53 1585.99 1256.47 C 1579.39 1205.96 1592.05 1147.22 1615.37 1102.05 C 1647.97 1038.91 1686.92 979.61 1717.07 915.021 C 1730.3 886.722 1742.15 857.799 1752.59 828.354 C 1756.79 816.489 1760.06 801.934 1765.69 790.904 C 1766.6 789.135 1766.69 789.911 1767.33 787.167 z" fill="rgb(248,213,136)" transform="translate(0,0)"></path>
<path d="M 1895.25 1149.05 C 1910.76 1147.18 1914.29 1154.26 1916.34 1168.32 C 1924.96 1227.43 1919.32 1292.19 1882.69 1341.55 C 1858.29 1374.44 1825.8 1397.58 1784.93 1403.66 C 1773.79 1405.4 1764.84 1401.12 1766.31 1388.67 C 1767.75 1376.38 1787.08 1374.12 1797.46 1370.1 C 1807.97 1365.98 1817.91 1360.52 1827.03 1353.86 C 1882.08 1313.77 1896.32 1244.4 1887.04 1180.1 C 1884.61 1163.26 1880.28 1159.19 1895.25 1149.05 z" fill="rgb(41,55,79)" transform="translate(0,0)"></path>
<metadata><recraft-signature>{"signed_by": "recraft", "signature_b64": "ikIZrRXpNaM1dCITxj3HVoFYZw1vYxAXExhPfiBWnRYYoUNiTqz/py0+tS6ZBSqKKOnWEckt+rbpV9tejVfCCw==", "signing_algo": "Ed25519", "generation_timestamp": 1782789427, "identifier": "f29040aa-16b7-4a5f-8607-03bbdd000db8"}</recraft-signature></metadata></svg>